<svg xmlns="http://www.w3.org/2000/svg" version="1.1" xmlns:xlink="http://www.w3.org/1999/xlink" xmlns:svgjs="http://svgjs.dev/svgjs" width="1000" height="166" viewBox="0 0 1000 166"><g transform="matrix(1,0,0,1,-0.6060606060606233,-0.4641438100380526)"><svg viewBox="0 0 396 66" data-background-color="#883d1a" preserveAspectRatio="xMidYMid meet" height="166" width="1000" xmlns="http://www.w3.org/2000/svg" xmlns:xlink="http://www.w3.org/1999/xlink"><defs></defs><g id="tight-bounds" transform="matrix(1,0,0,1,0.2400000000000091,0.18453910519585293)"><svg viewBox="0 0 395.52 65.63092178960828" height="65.63092178960828" width="395.52"><g><svg viewBox="0 0 397.4975999999999 65.9590763985563" height="65.63092178960828" width="395.52"><g><svg viewBox="0 0 397.4975999999999 65.9590763985563" height="65.9590763985563" width="397.4975999999999"><g><svg viewBox="0 0 397.4975999999999 65.9590763985563" height="65.9590763985563" width="397.4975999999999"><g><rect width="397.4975999999999" height="3.138933846332636" x="0" y="38.50472649670616" fill="#e6b17e" opacity="1" stroke-width="0" stroke="transparent" fill-opacity="1" class="rect-o-0" data-fill-palette-color="primary" rx="1%" id="o-0" data-palette-color="#e6b17e"></rect></g><g transform="matrix(1,0,0,1,0.9887999999999693,0)"><svg viewBox="0 0 395.52 34.80702955730908" height="34.80702955730908" width="395.52"><g transform="matrix(1,0,0,1,0,0)"><svg width="395.52" viewBox="2.6500000953674316 -32.45000076293945 373.82000732421875 32.900001525878906" height="34.80702955730908" data-palette-color="#e6b17e"><path d="M33.8-32.1L36.85 0 32.25 0 31.6-9.75 30.1-24.25 29.75-24.25 21.5-3.55 17.4-3.55 9.75-24.25 9.3-24.25 7.8-10.2 7 0 2.65 0 6-32.1 11.9-32.1 13.4-27.3 19.55-10.25 19.95-10.25 26.45-27.45 27.95-32.1 33.8-32.1ZM49.2-32.1L48.9-10.1 49.15 0 43.9 0 44.25-9.65 43.9-32.1 49.2-32.1ZM69.2-32.45Q74.09-32.45 77.84-30.25L77.84-30.25 76.9-25.7 76.4-25.55Q73.05-28.15 69-28.15L69-28.15Q64.59-28.15 62.27-25.18 59.95-22.2 59.95-16.3L59.95-16.3Q59.95-10.25 62.3-7.1 64.65-3.95 69-3.95L69-3.95Q71.09-3.95 73.17-4.67 75.25-5.4 77-6.7L77-6.7 77.5-6.4 77.09-1.7Q72.8 0.4 68.59 0.4L68.59 0.4Q61.85 0.4 58.2-3.8 54.55-8 54.55-15.75L54.55-15.75Q54.55-23.75 58.37-28.1 62.2-32.45 69.2-32.45L69.2-32.45ZM108.94-32.1L108.69-10.1 108.84 0 103.69 0 103.94-9.65 103.89-14 95.69-14.05 88.19-14 88.14-10.1 88.34 0 83.24 0 83.44-9.65 83.24-32.1 88.39-32.1 88.24-18.3 96.09-18.2 103.84-18.3 103.69-32.1 108.94-32.1ZM131.29-32.1L141.64 0 136.34 0 135.59-3.6 134.19-8.05 127.39-8.2 121.24-8.05 119.74-3.85 118.94 0 113.79 0 125.24-32.1 131.29-32.1ZM127.74-12.15L132.89-12.25 128.29-27.05 127.94-27.05 122.69-12.25 127.74-12.15ZM158.14-4.15L165.89-4.4 166.19-3.95 165.84 0 146.89 0 147.24-9.65 146.89-32.1 165.94-32.1 166.24-31.65 165.84-27.7 158.24-27.9 152.14-27.85 151.99-18.5 157.79-18.4 163.09-18.55 163.44-18.15 163.04-14.2 157.39-14.35 151.94-14.25 151.89-10.1 152.04-4.2 158.14-4.15ZM187.94-4.3L188.29-3.85 187.89 0 171.39 0 171.74-9.65 171.39-32.1 176.69-32.1 176.39-10.1 176.49-4.3 187.94-4.3ZM230.18-32.1L233.23 0 228.63 0 227.98-9.75 226.48-24.25 226.13-24.25 217.88-3.55 213.78-3.55 206.13-24.25 205.68-24.25 204.18-10.2 203.38 0 199.03 0 202.38-32.1 208.28-32.1 209.78-27.3 215.93-10.25 216.33-10.25 222.83-27.45 224.33-32.1 230.18-32.1ZM245.58-32.1L245.28-10.1 245.53 0 240.28 0 240.63-9.65 240.28-32.1 245.58-32.1ZM263.63-32.45Q267.43-32.45 271.23-30.85L271.23-30.85 270.38-26.15 269.58-25.85Q267.98-27 266.28-27.65 264.58-28.3 263.03-28.3L263.03-28.3Q260.58-28.3 259.13-26.95 257.68-25.6 257.68-23.8L257.68-23.8Q257.68-22.05 259.13-20.93 260.58-19.8 263.68-18.35L263.68-18.35Q266.38-17.05 268.05-16 269.73-14.95 270.93-13.23 272.13-11.5 272.13-9.1L272.13-9.1Q272.13-6.5 270.7-4.33 269.28-2.15 266.7-0.88 264.13 0.4 260.83 0.4L260.83 0.4Q258.63 0.4 256.28-0.15 253.93-0.7 251.83-1.75L251.83-1.75 252.48-6.85 253.13-7.15Q254.98-5.4 257.2-4.53 259.43-3.65 261.33-3.65L261.33-3.65Q263.93-3.65 265.48-5.03 267.03-6.4 267.03-8.3L267.03-8.3Q267.03-10.2 265.53-11.38 264.03-12.55 260.93-14L260.93-14Q258.28-15.25 256.63-16.28 254.98-17.3 253.8-19 252.63-20.7 252.63-23.1L252.63-23.1Q252.63-25.7 254.03-27.85 255.43-30 257.93-31.23 260.43-32.45 263.63-32.45L263.63-32.45ZM283.67-32.1L283.37-10.1 283.62 0 278.37 0 278.72-9.65 278.37-32.1 283.67-32.1ZM316.17-32.1L316.02-15.8 315.97-12Q316.07-6.1 312.77-2.85 309.47 0.4 303.42 0.4L303.42 0.4Q297.57 0.4 294.47-2.73 291.37-5.85 291.47-11.6L291.47-11.6 291.57-16.05 291.47-32.1 296.57-32.1 296.37-12.3Q296.32-8.1 298.17-6.05 300.02-4 303.77-4L303.77-4Q311.27-4 311.22-11.8L311.22-11.8 310.97-32.1 316.17-32.1ZM338.57-12.85Q341.97-7.4 346.62-1.2L346.62-1.2 346.57-0.6Q344.17 0.2 341.62 0.45L341.62 0.45 341.02 0.05Q336.87-6.75 334.32-11.45L334.32-11.45 328.87-11.45 328.87-10.1 329.12 0 323.87 0 324.22-9.65 323.87-32.1 334.77-32.15Q339.62-32.15 342.27-29.73 344.92-27.3 344.92-22.8L344.92-22.8Q344.92-19.6 343.24-17.03 341.57-14.45 338.57-12.85L338.57-12.85ZM329.12-27.95L328.97-15.65 334.47-15.5Q339.52-17.05 339.52-22.4L339.52-22.4Q339.52-25.2 337.99-26.6 336.47-28 333.37-28.1L333.37-28.1 329.12-27.95ZM366.12-32.1L376.47 0 371.17 0 370.42-3.6 369.02-8.05 362.22-8.2 356.07-8.05 354.57-3.85 353.77 0 348.62 0 360.07-32.1 366.12-32.1ZM362.57-12.15L367.72-12.25 363.12-27.05 362.77-27.05 357.52-12.25 362.57-12.15Z" opacity="1" transform="matrix(1,0,0,1,0,0)" fill="#e6b17e" class="undefined-text-0" data-fill-palette-color="primary" id="text-0"></path></svg></g></svg></g><g transform="matrix(1,0,0,1,0,45.34135728243588)"><svg viewBox="0 0 395.52 20.61771911612042" height="20.61771911612042" width="395.52"><g transform="matrix(1,0,0,1,0,0)"><svg width="395.52" viewBox="5 -31.899999618530273 774.9600219726562 40.40999984741211" height="20.61771911612042" data-palette-color="#c56e33"><path d="M12.07-27.13L7.24-23.97Q6.9-23.68 6.38-23.68 5.86-23.68 5.43-24.17 5-24.66 5-25.17L5-25.17Q5-26.03 5.63-26.32L5.63-26.32 12.99-31.03Q13.28-31.21 13.59-31.24 13.91-31.26 14.37-31.32 14.83-31.38 15.4-30.92 15.98-30.46 15.98-29.43L15.98-29.43 15.98-1.84Q15.98-0.92 15.52-0.55 15.06-0.17 14.71-0.09 14.37 0 13.99 0 13.62 0 13.3-0.09 12.99-0.17 12.76-0.46L12.76-0.46Q12.18-0.92 12.07-1.84L12.07-1.84 12.07-27.13ZM39.71-15.52L39.71-15.52Q39.71-18.51 40.57-21.55 41.43-24.6 43.21-26.78L43.21-26.78Q47.01-31.61 54.02-31.61L54.02-31.61Q58.04-31.61 61.83-29.83L61.83-29.83Q62.81-29.43 62.81-28.51L62.81-28.51Q62.81-26.78 61.43-26.72L61.43-26.72Q61.14-26.72 60.91-26.78L60.91-26.78Q56.95-28.16 54.62-28.16 52.29-28.16 50.74-27.64 49.19-27.13 48.04-26.21 46.89-25.29 46.09-24.08 45.28-22.87 44.82-21.38L44.82-21.38Q43.85-18.62 43.85-15.52L43.85-15.52Q43.85-10.46 46.09-7.01L46.09-7.01Q48.73-2.93 54.25-2.93L54.25-2.93Q58.04-2.93 61.49-4.94L61.49-4.94Q61.95-5.06 62.38-5.06 62.81-5.06 63.18-4.66 63.56-4.25 63.56-3.62 63.56-2.99 63.1-2.44 62.64-1.9 61.86-1.47 61.09-1.03 60.14-0.69 59.19-0.34 58.16-0.11L58.16-0.11Q55.97 0.46 54.02 0.46L54.02 0.46Q46.95 0.46 43.21-4.31L43.21-4.31Q39.71-8.62 39.71-15.52ZM69.36-10.86L69.36-10.86Q69.36-12.93 70.02-15 70.68-17.07 72.06-18.74L72.06-18.74Q74.94-22.24 80.22-22.24 85.51-22.24 88.38-18.74L88.38-18.74Q91.08-15.4 91.08-10.92L91.08-10.92Q91.08-6.38 88.38-3.1L88.38-3.1Q85.51 0.46 80.22 0.46 74.94 0.46 72.06-3.1L72.06-3.1Q69.36-6.32 69.36-10.86ZM73.1-10.86L73.1-10.86Q73.1-9.48 73.47-7.93 73.84-6.38 74.82-5.06L74.82-5.06Q76.77-2.24 80.22-2.24L80.22-2.24Q83.84-2.24 85.62-5.06L85.62-5.06Q87.29-7.7 87.29-10.92L87.29-10.92Q87.29-14.25 85.62-16.67L85.62-16.67Q83.79-19.54 80.22-19.54L80.22-19.54Q76.77-19.54 74.82-16.67L74.82-16.67Q73.1-14.31 73.1-10.86ZM99.76-20.11L99.76-18.16Q101.14-22.24 105.79-22.24L105.79-22.24Q106.66-22.24 107.09-21.75 107.52-21.26 107.52-20.72 107.52-20.17 107.09-19.68 106.66-19.2 105.51-19.2 104.36-19.2 103.21-18.74 102.06-18.28 101.31-17.41L101.31-17.41Q99.76-15.52 99.76-12.41L99.76-12.41 99.76-1.61Q99.76-0.8 99.19-0.4 98.61 0 98.15 0 97.69 0 97.4-0.09 97.12-0.17 96.83-0.46L96.83-0.46Q96.31-0.8 96.31-1.61L96.31-1.61 96.31-20.11Q96.31-20.86 96.83-21.35 97.35-21.84 98.12-21.84 98.9-21.84 99.33-21.35 99.76-20.86 99.76-20.11L99.76-20.11ZM112.54-1.32Q112.4-1.72 112.4-2.13 112.4-2.53 112.54-2.9 112.69-3.28 113.03-3.59 113.38-3.91 113.81-4.08 114.24-4.25 114.82-4.25 115.39-4.25 115.79-4.08 116.19-3.91 116.51-3.59 116.83-3.28 116.97-2.9 117.11-2.53 117.11-2.13 117.11-1.72 116.97-1.32 116.83-0.92 116.51-0.63 116.19-0.34 115.79-0.17 115.39 0 114.82 0 114.24 0 113.81-0.17 113.38-0.34 113.03-0.63 112.69-0.92 112.54-1.32ZM144.75-27.13L139.93-23.97Q139.58-23.68 139.06-23.68 138.55-23.68 138.11-24.17 137.68-24.66 137.68-25.17L137.68-25.17Q137.68-26.03 138.32-26.32L138.32-26.32 145.67-31.03Q145.96-31.21 146.28-31.24 146.59-31.26 147.05-31.32 147.51-31.38 148.09-30.92 148.66-30.46 148.66-29.43L148.66-29.43 148.66-1.84Q148.66-0.92 148.2-0.55 147.74-0.17 147.4-0.09 147.05 0 146.68 0 146.3 0 145.99-0.09 145.67-0.17 145.44-0.46L145.44-0.46Q144.87-0.92 144.75-1.84L144.75-1.84 144.75-27.13ZM171.13-28.51L171.13-28.51Q166.99-28.51 165.38-23.97L165.38-23.97Q164.64-21.49 164.49-19.28 164.35-17.07 164.35-15.55 164.35-14.02 164.46-12.64 164.58-11.26 164.78-9.86 164.98-8.45 165.41-7.16 165.84-5.86 166.65-4.83L166.65-4.83Q168.26-2.59 171.13-2.64L171.13-2.64Q177.22-2.64 177.8-12.64L177.8-12.64Q177.91-14.02 177.85-15.55 177.8-17.07 177.77-18.45 177.74-19.83 177.48-21.24 177.22-22.64 176.76-23.97 176.3-25.29 175.5-26.32L175.5-26.32Q173.95-28.51 171.13-28.51ZM171.13 0.46L171.13 0.46Q160.32 0.46 160.32-15.4L160.32-15.4Q160.32-20.23 160.96-22.7 161.59-25.17 162.42-26.67 163.26-28.16 164.46-29.31L164.46-29.31Q167.05-31.61 171.13-31.61L171.13-31.61Q181.88-31.61 181.88-15.4L181.88-15.4Q181.88-5.52 177.74-1.9L177.74-1.9Q175.15 0.46 171.13 0.46ZM187.85-19.83L187.85-19.83Q187.85-21.26 189.17-21.84L189.17-21.84Q189.58-21.95 190.21-21.95 190.84-21.95 191.24-21.78 191.64-21.61 191.99-21.26L191.99-21.26Q192.62-20.69 192.56-19.83L192.56-19.83Q192.56-18.45 191.24-17.93L191.24-17.93Q190.84-17.76 190.26-17.73 189.69-17.7 189.26-17.87 188.83-18.05 188.48-18.28L188.48-18.28Q187.85-18.97 187.85-19.83ZM187.99-1.32Q187.85-1.72 187.85-2.13 187.85-2.53 187.99-2.9 188.14-3.28 188.48-3.59 188.83-3.91 189.26-4.08 189.69-4.25 190.26-4.25 190.84-4.25 191.24-4.08 191.64-3.91 191.96-3.59 192.28-3.28 192.42-2.9 192.56-2.53 192.56-2.13 192.56-1.72 192.42-1.32 192.28-0.92 191.96-0.63 191.64-0.34 191.24-0.17 190.84 0 190.26 0 189.69 0 189.26-0.17 188.83-0.34 188.48-0.63 188.14-0.92 187.99-1.32ZM206.81-17.47L208.14-17.47Q211.07-17.47 212.96-18.79L212.96-18.79Q215.09-20.34 215.09-22.99L215.09-22.99Q215.09-25.4 213.25-27.01L213.25-27.01Q211.58-28.39 208.88-28.28L208.88-28.28Q206.7-28.28 202.91-27.07L202.91-27.07Q202.22-26.78 201.7-26.78 201.18-26.78 200.72-27.3 200.26-27.82 200.26-28.39L200.26-28.39Q200.26-29.43 201.3-29.89L201.3-29.89Q205.09-31.55 208.77-31.61L208.77-31.61Q213.25-31.61 216.07-29.48L216.07-29.48Q219.17-27.24 219.17-23.1L219.17-23.1Q219.17-20.46 217.39-18.51L217.39-18.51Q215.72-16.72 213.02-16.09L213.02-16.09 213.02-16.09Q216.01-15.52 217.85-13.33L217.85-13.33Q219.69-11.21 219.69-8.53 219.69-5.86 218.77-4.22 217.85-2.59 216.41-1.55L216.41-1.55Q213.65 0.46 209.17 0.46L209.17 0.46Q206.47 0.46 203.83-0.46L203.83-0.46Q201.93-1.03 201.27-1.64 200.61-2.24 200.61-2.79 200.61-3.33 201.1-3.82 201.58-4.31 202.1-4.31 202.62-4.31 202.96-4.14 203.31-3.97 204.03-3.76 204.75-3.56 205.55-3.28L205.55-3.28Q207.27-2.76 209-2.76 210.72-2.76 211.87-3.1 213.02-3.45 213.83-4.14L213.83-4.14Q215.55-5.63 215.66-8.1L215.66-8.1Q215.66-11.03 213.48-12.87L213.48-12.87Q211.58-14.48 208.48-14.37L208.48-14.37 206.81-14.37Q206.12-14.37 205.75-14.86 205.38-15.34 205.38-15.98L205.38-15.98Q205.38-16.55 205.72-16.98 206.07-17.41 206.81-17.47L206.81-17.47ZM234.23-27.13L229.4-23.97Q229.05-23.68 228.54-23.68 228.02-23.68 227.59-24.17 227.16-24.66 227.16-25.17L227.16-25.17Q227.16-26.03 227.79-26.32L227.79-26.32 235.14-31.03Q235.43-31.21 235.75-31.24 236.06-31.26 236.52-31.32 236.98-31.38 237.56-30.92 238.13-30.46 238.13-29.43L238.13-29.43 238.13-1.84Q238.13-0.92 237.67-0.55 237.21-0.17 236.87-0.09 236.52 0 236.15 0 235.78 0 235.46-0.09 235.14-0.17 234.92-0.46L234.92-0.46Q234.34-0.92 234.23-1.84L234.23-1.84 234.23-27.13ZM272.73 0L265.14 0Q263.93 0 263.3-1.15L263.3-1.15Q263.19-1.49 263.24-1.9L263.24-1.9 263.24-29.43Q263.24-30.57 264.34-31.21L264.34-31.21Q264.68-31.38 265.14-31.38L265.14-31.38 272.61-31.38Q284.97-31.38 288.36-22.41L288.36-22.41Q289.45-19.48 289.39-15.63L289.39-15.63Q289.39-7.93 285.02-3.97L285.02-3.97Q280.66 0 272.73 0L272.73 0ZM267.09-28.28L267.09-2.99 273.19-2.99Q282.38-2.99 284.57-10.46L284.57-10.46Q285.25-12.76 285.25-15.8 285.25-18.85 284.34-21.26 283.42-23.68 281.69-25.29L281.69-25.29Q278.42-28.28 272.04-28.28L272.04-28.28 267.09-28.28ZM293.93-10.86L293.93-10.86Q293.93-12.93 294.59-15 295.25-17.07 296.63-18.74L296.63-18.74Q299.51-22.24 304.79-22.24 310.08-22.24 312.95-18.74L312.95-18.74Q315.65-15.4 315.65-10.92L315.65-10.92Q315.65-6.38 312.95-3.1L312.95-3.1Q310.08 0.46 304.79 0.46 299.51 0.46 296.63-3.1L296.63-3.1Q293.93-6.32 293.93-10.86ZM297.67-10.86L297.67-10.86Q297.67-9.48 298.04-7.93 298.41-6.38 299.39-5.06L299.39-5.06Q301.34-2.24 304.79-2.24L304.79-2.24Q308.41-2.24 310.19-5.06L310.19-5.06Q311.86-7.7 311.86-10.92L311.86-10.92Q311.86-14.25 310.19-16.67L310.19-16.67Q308.36-19.54 304.79-19.54L304.79-19.54Q301.34-19.54 299.39-16.67L299.39-16.67Q297.67-14.31 297.67-10.86ZM342.78-13.28L342.78-13.28Q343.98-13.28 345.19-13.22L345.19-13.22 345.19-15.06Q345.19-19.54 340.19-19.54L340.19-19.54Q337.95-19.54 336.91-19.14L336.91-19.14Q335.07-18.45 334.27-17.96 333.47-17.47 333.01-17.47 332.55-17.47 332.14-17.82 331.74-18.16 331.74-18.74L331.74-18.74Q331.74-19.2 332.26-19.66L332.26-19.66Q334.96-22.24 340.25-22.24L340.25-22.24Q346.34-22.24 348.06-18.16L348.06-18.16Q348.64-16.72 348.64-14.83L348.64-14.83 348.52-1.55Q348.52-0.8 348.01-0.4 347.49 0 346.86 0 346.22 0 345.71-0.34 345.19-0.69 345.19-1.49L345.19-1.49 345.19-3.56Q343.81-0.57 340.25 0.17L340.25 0.17Q339.16 0.46 337.78 0.46 336.4 0.46 335.05 0.06 333.7-0.34 332.66-1.21L332.66-1.21Q330.53-2.99 330.53-6.03L330.53-6.03Q330.53-13.28 342.78-13.28ZM345.19-8.74L345.19-10.69Q344.27-10.57 343.06-10.57 341.86-10.57 340.59-10.55 339.33-10.52 338.18-10.26 337.03-10 336.11-9.48L336.11-9.48Q334.16-8.45 334.04-6.09L334.04-6.09Q334.04-4.25 335.53-3.22L335.53-3.22Q336.68-2.3 338.81-2.24L338.81-2.24Q341.4-2.24 343.29-3.91L343.29-3.91Q345.02-5.52 345.19-8.74L345.19-8.74ZM355.24-1.72L355.24-29.54Q355.24-30.46 355.82-30.86 356.39-31.26 356.85-31.26 357.31-31.26 357.6-31.21 357.89-31.15 358.18-30.86L358.18-30.86Q358.81-30.46 358.81-29.54L358.81-29.54 358.81-1.72Q358.81-0.86 358.23-0.43 357.66 0 356.97 0L356.97 0Q356.28 0 355.76-0.43 355.24-0.86 355.24-1.72L355.24-1.72ZM365.59-1.72L365.59-29.54Q365.59-30.46 366.16-30.86 366.74-31.26 367.2-31.26 367.66-31.26 367.94-31.21 368.23-31.15 368.52-30.86L368.52-30.86Q369.15-30.46 369.15-29.54L369.15-29.54 369.15-1.72Q369.15-0.86 368.58-0.43 368 0 367.31 0L367.31 0Q366.62 0 366.1-0.43 365.59-0.86 365.59-1.72L365.59-1.72ZM396.62-19.2L392.88-19.2 392.88-1.72Q392.88-0.86 392.34-0.43 391.79 0 391.27 0 390.75 0 390.44-0.09 390.12-0.17 389.89-0.46L389.89-0.46Q389.32-0.86 389.38-1.72L389.38-1.72 389.38-19.2 386.33-19.2Q385.64-19.2 385.29-19.6 384.95-20 384.95-20.52L384.95-20.52Q384.95-20.92 385.29-21.38 385.64-21.84 386.33-21.84L386.33-21.84 389.38-21.84 389.38-24.25Q389.38-30.17 392.54-31.49L392.54-31.49Q393.57-31.9 394.61-31.9L394.61-31.9Q396.44-31.9 398.34-31.26L398.34-31.26Q399.2-30.92 399.2-30.11L399.2-30.11Q399.2-29.66 398.92-29.22 398.63-28.79 398.14-28.79 397.65-28.79 397.39-28.82 397.13-28.85 396.9-28.97L396.9-28.97Q396.27-29.08 395.5-29.08 394.72-29.08 394.2-28.76 393.69-28.45 393.34-27.76L393.34-27.76Q392.88-26.67 392.88-22.53L392.88-22.53 392.88-21.84 396.62-21.84Q397.31-21.84 397.68-21.44 398.05-21.03 398.05-20.52 398.05-20 397.68-19.6 397.31-19.2 396.62-19.2L396.62-19.2ZM401.15-10.86L401.15-10.86Q401.15-12.93 401.82-15 402.48-17.07 403.86-18.74L403.86-18.74Q406.73-22.24 412.02-22.24 417.3-22.24 420.18-18.74L420.18-18.74Q422.88-15.4 422.88-10.92L422.88-10.92Q422.88-6.38 420.18-3.1L420.18-3.1Q417.3 0.46 412.02 0.46 406.73 0.46 403.86-3.1L403.86-3.1Q401.15-6.32 401.15-10.86ZM404.89-10.86L404.89-10.86Q404.89-9.48 405.26-7.93 405.64-6.38 406.61-5.06L406.61-5.06Q408.57-2.24 412.02-2.24L412.02-2.24Q415.64-2.24 417.42-5.06L417.42-5.06Q419.09-7.7 419.09-10.92L419.09-10.92Q419.09-14.25 417.42-16.67L417.42-16.67Q415.58-19.54 412.02-19.54L412.02-19.54Q408.57-19.54 406.61-16.67L406.61-16.67Q404.89-14.31 404.89-10.86ZM431.55-20.11L431.55-18.16Q432.93-22.24 437.59-22.24L437.59-22.24Q438.45-22.24 438.88-21.75 439.31-21.26 439.31-20.72 439.31-20.17 438.88-19.68 438.45-19.2 437.3-19.2 436.15-19.2 435-18.74 433.85-18.28 433.11-17.41L433.11-17.41Q431.55-15.52 431.55-12.41L431.55-12.41 431.55-1.61Q431.55-0.8 430.98-0.4 430.4 0 429.95 0 429.49 0 429.2-0.09 428.91-0.17 428.62-0.46L428.62-0.46Q428.11-0.8 428.11-1.61L428.11-1.61 428.11-20.11Q428.11-20.86 428.62-21.35 429.14-21.84 429.92-21.84 430.69-21.84 431.12-21.35 431.55-20.86 431.55-20.11L431.55-20.11ZM466.66-1.26L466.66-1.26Q466.66 0.46 462.58 0.46L462.58 0.46Q459.54 0.46 458.27-1.21L458.27-1.21Q456.89-2.99 456.78-7.07L456.78-7.07 456.78-19.14 454.25-19.14Q453.56-19.14 453.16-19.57 452.76-20 452.76-20.46L452.76-20.46Q452.76-20.92 453.1-21.38 453.45-21.84 454.25-21.84L454.25-21.84 457.01-21.84 457.24-28.05Q457.35-28.74 457.87-29.11 458.39-29.48 458.96-29.48 459.54-29.48 459.94-29.14 460.34-28.79 460.34-28.05L460.34-28.05 460.34-21.84 464.31-21.84Q465-21.84 465.37-21.38 465.74-20.92 465.74-20.46L465.74-20.46Q465.74-19.89 465.37-19.51 465-19.14 464.31-19.14L464.31-19.14 460.34-19.14 460.34-8.97Q460.34-4.71 460.63-3.82 460.92-2.93 461.55-2.59 462.18-2.24 463.1-2.24L463.1-2.24 465.34-2.41Q465.97-2.41 466.32-2.01 466.66-1.61 466.66-1.26ZM485.63-1.61L485.63-14.14Q485.63-16.78 484.13-18.28L484.13-18.28Q482.81-19.54 481.06-19.54 479.31-19.54 478.1-19.14 476.89-18.74 475.97-17.82L475.97-17.82Q474.02-15.98 474.02-12.59L474.02-12.59 474.02-1.61Q474.02-0.8 473.44-0.4 472.87 0 472.18 0L472.18 0Q471.49 0 471.03-0.43 470.57-0.86 470.57-1.61L470.57-1.61 470.57-29.66Q470.57-30.46 471.14-30.86 471.72-31.26 472.29-31.26L472.29-31.26Q472.98-31.26 473.5-30.89 474.02-30.52 474.02-29.66L474.02-29.66 474.02-18.1Q474.82-20.11 477.01-21.21L477.01-21.21Q479.02-22.24 481-22.24 482.98-22.24 484.36-21.75 485.74-21.26 486.89-20.34L486.89-20.34Q489.19-18.16 489.19-13.91L489.19-13.91 489.19-1.61Q489.19-0.8 488.59-0.4 487.98 0 487.35 0L487.35 0Q486.66 0 486.14-0.43 485.63-0.86 485.63-1.61L485.63-1.61ZM515.34-11.55L515.34-11.55Q515.34-10.34 513.96-10.23L513.96-10.23 498.21-10.23Q498.44-4.37 502.81-2.64L502.81-2.64Q504.02-2.24 505.57-2.24L505.57-2.24Q508.79-2.24 512.12-4.6L512.12-4.6Q513.15-5.17 513.84-4.48L513.84-4.48Q514.19-4.14 514.07-3.79L514.07-3.79Q514.07-2.99 513.67-2.64L513.67-2.64Q510.51 0.52 505.34 0.46L505.34 0.46Q500.62 0.46 497.75-2.59L497.75-2.59Q494.53-5.75 494.53-10.92L494.53-10.92Q494.53-15.69 497.18-18.79L497.18-18.79Q499.94-22.24 504.99-22.24L504.99-22.24Q510.05-22.24 512.69-19.2L512.69-19.2Q515.22-16.44 515.34-11.55ZM498.33-12.59L511.95-12.59Q511.77-15.69 509.94-17.7L509.94-17.7Q508.21-19.54 504.99-19.54L504.99-19.54Q502.23-19.54 500.28-17.47L500.28-17.47Q498.5-15.4 498.33-12.59L498.33-12.59ZM538.29-6.21Q539.64-4.48 541.83-3.56 544.01-2.64 547.34-2.64 550.68-2.64 554.01-3.68L554.01-3.68 554.01-13.22 547.8-13.22Q547.11-13.22 546.71-13.68 546.31-14.14 546.31-14.66L546.31-14.66Q546.31-15.29 546.65-15.69 547-16.09 547.8-16.09L547.8-16.09 556.25-16.09Q557.92-16.09 557.92-14.48L557.92-14.48 557.92-2.99Q557.92-1.38 556.42-1.15L556.42-1.15Q551.14 0.46 547.29 0.46 543.44 0.46 540.56-0.52 537.69-1.49 535.73-3.45L535.73-3.45Q531.48-7.7 531.48-15.63L531.48-15.63Q531.48-22.24 535.39-26.72L535.39-26.72Q539.41-31.55 547-31.61L547-31.61Q551.94-31.61 555.85-30L555.85-30Q556.65-29.54 556.65-28.82 556.65-28.1 556.28-27.59 555.91-27.07 555.27-27.07L555.27-27.07 555.04-27.07Q554.93-27.07 554.41-27.21 553.9-27.36 552.92-27.56 551.94-27.76 550.91-27.93L550.91-27.93Q548.61-28.28 547.23-28.28L547.23-28.28Q541.37-28.28 538.32-24.37L538.32-24.37Q536.94-22.59 536.34-20.2 535.73-17.82 535.73-15.29 535.73-12.76 536.34-10.34 536.94-7.93 538.29-6.21ZM565.1-1.72L565.1-29.54Q565.1-30.46 565.67-30.86 566.25-31.26 566.71-31.26 567.17-31.26 567.46-31.21 567.74-31.15 568.03-30.86L568.03-30.86Q568.66-30.46 568.66-29.54L568.66-29.54 568.66-1.72Q568.66-0.86 568.09-0.43 567.51 0 566.82 0L566.82 0Q566.13 0 565.62-0.43 565.1-0.86 565.1-1.72L565.1-1.72ZM573.89-10.86L573.89-10.86Q573.89-12.93 574.55-15 575.21-17.07 576.59-18.74L576.59-18.74Q579.47-22.24 584.75-22.24 590.04-22.24 592.91-18.74L592.91-18.74Q595.61-15.4 595.61-10.92L595.61-10.92Q595.61-6.38 592.91-3.1L592.91-3.1Q590.04 0.46 584.75 0.46 579.47 0.46 576.59-3.1L576.59-3.1Q573.89-6.32 573.89-10.86ZM577.63-10.86L577.63-10.86Q577.63-9.48 578-7.93 578.37-6.38 579.35-5.06L579.35-5.06Q581.3-2.24 584.75-2.24L584.75-2.24Q588.37-2.24 590.15-5.06L590.15-5.06Q591.82-7.7 591.82-10.92L591.82-10.92Q591.82-14.25 590.15-16.67L590.15-16.67Q588.32-19.54 584.75-19.54L584.75-19.54Q581.3-19.54 579.35-16.67L579.35-16.67Q577.63-14.31 577.63-10.86ZM604.29-20.11L604.29-18.16Q605.67-22.24 610.32-22.24L610.32-22.24Q611.19-22.24 611.62-21.75 612.05-21.26 612.05-20.72 612.05-20.17 611.62-19.68 611.19-19.2 610.04-19.2 608.89-19.2 607.74-18.74 606.59-18.28 605.84-17.41L605.84-17.41Q604.29-15.52 604.29-12.41L604.29-12.41 604.29-1.61Q604.29-0.8 603.72-0.4 603.14 0 602.68 0 602.22 0 601.93-0.09 601.65-0.17 601.36-0.46L601.36-0.46Q600.84-0.8 600.84-1.61L600.84-1.61 600.84-20.11Q600.84-20.86 601.36-21.35 601.88-21.84 602.65-21.84 603.43-21.84 603.86-21.35 604.29-20.86 604.29-20.11L604.29-20.11ZM619.98 6.32L622.56-0.17 614.12-19.48Q613.94-19.83 613.94-20.17 613.94-20.52 614.12-20.83 614.29-21.15 614.52-21.26L614.52-21.26Q615.21-21.72 615.84-21.84L615.84-21.84Q617.05-21.84 617.56-20.69L617.56-20.69 624.4-4.14 631.18-20.69Q631.7-21.84 632.53-21.84 633.37-21.84 633.91-21.35 634.46-20.86 634.46-20.34 634.46-19.83 634.29-19.48L634.29-19.48 623.25 7.36Q622.74 8.51 621.64 8.51L621.64 8.51Q620.95 8.51 620.49 8.16L620.49 8.16Q619.81 7.59 619.81 7.07 619.81 6.55 619.98 6.32L619.98 6.32ZM648.94-10.86L648.94-10.86Q648.94-12.93 649.6-15 650.26-17.07 651.64-18.74L651.64-18.74Q654.51-22.24 659.8-22.24 665.09-22.24 667.96-18.74L667.96-18.74Q670.66-15.4 670.66-10.92L670.66-10.92Q670.66-6.38 667.96-3.1L667.96-3.1Q665.09 0.46 659.8 0.46 654.51 0.46 651.64-3.1L651.64-3.1Q648.94-6.32 648.94-10.86ZM652.67-10.86L652.67-10.86Q652.67-9.48 653.05-7.93 653.42-6.38 654.4-5.06L654.4-5.06Q656.35-2.24 659.8-2.24L659.8-2.24Q663.42-2.24 665.2-5.06L665.2-5.06Q666.87-7.7 666.87-10.92L666.87-10.92Q666.87-14.25 665.2-16.67L665.2-16.67Q663.36-19.54 659.8-19.54L659.8-19.54Q656.35-19.54 654.4-16.67L654.4-16.67Q652.67-14.31 652.67-10.86ZM685.03-19.2L681.29-19.2 681.29-1.72Q681.29-0.86 680.75-0.43 680.2 0 679.68 0 679.17 0 678.85-0.09 678.53-0.17 678.3-0.46L678.3-0.46Q677.73-0.86 677.79-1.72L677.79-1.72 677.79-19.2 674.74-19.2Q674.05-19.2 673.71-19.6 673.36-20 673.36-20.52L673.36-20.52Q673.36-20.92 673.71-21.38 674.05-21.84 674.74-21.84L674.74-21.84 677.79-21.84 677.79-24.25Q677.79-30.17 680.95-31.49L680.95-31.49Q681.98-31.9 683.02-31.9L683.02-31.9Q684.86-31.9 686.75-31.26L686.75-31.26Q687.61-30.92 687.61-30.11L687.61-30.11Q687.61-29.66 687.33-29.22 687.04-28.79 686.55-28.79 686.06-28.79 685.8-28.82 685.54-28.85 685.31-28.97L685.31-28.97Q684.68-29.08 683.91-29.08 683.13-29.08 682.61-28.76 682.1-28.45 681.75-27.76L681.75-27.76Q681.29-26.67 681.29-22.53L681.29-22.53 681.29-21.84 685.03-21.84Q685.72-21.84 686.09-21.44 686.46-21.03 686.46-20.52 686.46-20 686.09-19.6 685.72-19.2 685.03-19.2L685.03-19.2ZM708.67-6.21Q710.02-4.48 712.21-3.56 714.39-2.64 717.72-2.64 721.06-2.64 724.39-3.68L724.39-3.68 724.39-13.22 718.18-13.22Q717.49-13.22 717.09-13.68 716.69-14.14 716.69-14.66L716.69-14.66Q716.69-15.29 717.03-15.69 717.38-16.09 718.18-16.09L718.18-16.09 726.63-16.09Q728.3-16.09 728.3-14.48L728.3-14.48 728.3-2.99Q728.3-1.38 726.8-1.15L726.8-1.15Q721.52 0.46 717.67 0.46 713.82 0.46 710.94-0.52 708.07-1.49 706.11-3.45L706.11-3.45Q701.86-7.7 701.86-15.63L701.86-15.63Q701.86-22.24 705.77-26.72L705.77-26.72Q709.79-31.55 717.38-31.61L717.38-31.61Q722.32-31.61 726.23-30L726.23-30Q727.03-29.54 727.03-28.82 727.03-28.1 726.66-27.59 726.29-27.07 725.65-27.07L725.65-27.07 725.42-27.07Q725.31-27.07 724.79-27.21 724.28-27.36 723.3-27.56 722.32-27.76 721.29-27.93L721.29-27.93Q718.99-28.28 717.61-28.28L717.61-28.28Q711.75-28.28 708.7-24.37L708.7-24.37Q707.32-22.59 706.72-20.2 706.11-17.82 706.11-15.29 706.11-12.76 706.72-10.34 707.32-7.93 708.67-6.21ZM733.93-10.86L733.93-10.86Q733.93-12.93 734.59-15 735.25-17.07 736.63-18.74L736.63-18.74Q739.5-22.24 744.79-22.24 750.08-22.24 752.95-18.74L752.95-18.74Q755.65-15.4 755.65-10.92L755.65-10.92Q755.65-6.38 752.95-3.1L752.95-3.1Q750.08 0.46 744.79 0.46 739.5 0.46 736.63-3.1L736.63-3.1Q733.93-6.32 733.93-10.86ZM737.66-10.86L737.66-10.86Q737.66-9.48 738.04-7.93 738.41-6.38 739.39-5.06L739.39-5.06Q741.34-2.24 744.79-2.24L744.79-2.24Q748.41-2.24 750.19-5.06L750.19-5.06Q751.86-7.7 751.86-10.92L751.86-10.92Q751.86-14.25 750.19-16.67L750.19-16.67Q748.35-19.54 744.79-19.54L744.79-19.54Q741.34-19.54 739.39-16.67L739.39-16.67Q737.66-14.31 737.66-10.86ZM776.4-1.61L776.4-3.62Q773.52 0.46 768.58 0.46L768.58 0.46Q764.1 0.46 761.57-3.1L761.57-3.1Q759.39-6.32 759.39-10.92L759.39-10.92Q759.39-18.62 764.5-21.26L764.5-21.26Q766.22-22.24 767.98-22.24 769.73-22.24 770.88-22.04 772.03-21.84 773.06-21.26L773.06-21.26Q775.25-20.17 776.4-18.28L776.4-18.28 776.4-29.66Q776.4-30.52 776.97-30.89 777.55-31.26 778.24-31.26L778.24-31.26Q778.93-31.26 779.44-30.89 779.96-30.52 779.96-29.66L779.96-29.66 779.96-1.61Q779.96-0.8 779.39-0.4 778.81 0 778.35 0 777.89 0 777.57-0.09 777.26-0.17 776.97-0.46L776.97-0.46Q776.4-0.86 776.4-1.61L776.4-1.61ZM769.27-2.24L769.27-2.24Q776.28-2.24 776.28-11.26L776.28-11.26Q776.28-17.07 772.78-18.85L772.78-18.85Q771.45-19.54 769.62-19.54 767.78-19.54 766.57-18.82 765.36-18.1 764.56-16.9L764.56-16.9Q763.12-14.66 763.12-11.21L763.12-11.21Q763.12-6.09 765.53-3.68L765.53-3.68Q766.91-2.24 769.27-2.24Z" opacity="1" transform="matrix(1,0,0,1,0,0)" fill="#c56e33" class="undefined-text-1" data-fill-palette-color="secondary" id="text-1"></path></svg></g></svg></g></svg></g></svg></g></svg></g></svg><rect width="395.52" height="65.63092178960828" fill="none" stroke="none" visibility="hidden"></rect></g></svg></g></svg>