<svg xmlns="http://www.w3.org/2000/svg" version="1.1" xmlns:xlink="http://www.w3.org/1999/xlink" xmlns:svgjs="http://svgjs.dev/svgjs" width="1000" height="1000" viewBox="0 0 1000 1000"><rect width="1000" height="1000" fill="#883d1a"></rect><g transform="matrix(0.7,0,0,0.7,149.57575759864136,385.26171177650497)"><svg viewBox="0 0 396 130" data-background-color="#883d1a" preserveAspectRatio="xMidYMid meet" height="328" width="1000" xmlns="http://www.w3.org/2000/svg" xmlns:xlink="http://www.w3.org/1999/xlink"><defs></defs><g id="tight-bounds" transform="matrix(1,0,0,1,0.240000012945643,-0.03494133687127032)"><svg viewBox="0 0 395.52 130.06988267374257" height="130.06988267374257" width="395.52"><g><svg viewBox="0 0 397.4975999999999 130.72023208711127" height="130.06988267374257" width="395.52"><g><svg viewBox="0 0 397.4975999999999 130.72023208711127" height="130.72023208711127" width="397.4975999999999"><g><svg viewBox="0 0 397.4975999999999 130.72023208711127" height="130.72023208711127" width="397.4975999999999"><g><rect width="397.4975999999999" height="8.007920890794336" x="0" y="98.23169866021449" fill="#e6b17e" opacity="1" stroke-width="0" stroke="transparent" fill-opacity="1" class="rect-o-0" data-fill-palette-color="primary" rx="1%" id="o-0" data-palette-color="#e6b17e"></rect></g><g transform="matrix(1,0,0,1,0.9887999999999693,0)"><svg viewBox="0 0 395.52 88.79828399828399" height="88.79828399828399" width="395.52"><g transform="matrix(1,0,0,1,0,0)"><svg width="395.52" viewBox="3.0799999237060547 -37.84000015258789 170.70999145507812 38.33000183105469" height="88.79828399828399" data-palette-color="#e6b17e"><path d="M3.08 0L8.84-37.35 15.21-37.35 23.71-9.77 25.15-3.81 26.54-9.79 34.74-37.35 40.82-37.35 46.85 0 42.7 0 38.16-28.22 37.48-34.81 35.99-28.17 27.56-0.02 22.75-0.02 13.96-28.32 12.23-34.81 11.4-28.27 7.28 0 3.08 0ZM55.83 0L55.83-37.35 77-37.35 77-33.74 59.98-33.74 59.98-20.85 73.7-20.85 73.7-17.26 59.98-17.26 59.98-3.59 77.66-3.59 77.66 0 55.83 0ZM97.99 0L97.99-37.35 102.12-37.35 102.12 0 97.99 0ZM114.15 0L114.15-37.35 117.45-37.35 134.63-10.21 136.86-5.59 136.32-10.72 136.32-37.35 140.1-37.35 140.1 0 136.61 0 119.55-27.08 117.4-31.27 117.93-26.29 117.93 0 114.15 0ZM164.49-3.03L164.71-3.03Q168.69-3.03 172.72-4.57L172.72-4.57 173.79-1.2Q171.94-0.27 169.32 0.11 166.71 0.49 164.71 0.49L164.71 0.49 164.37 0.49Q155.68 0.49 152.72-4.49L152.72-4.49Q150.92-7.52 150.52-12.65L150.52-12.65Q150.35-15.11 150.35-18.04 150.35-20.97 150.51-23.62 150.67-26.27 151.16-28.48 151.65-30.69 152.58-32.42 153.5-34.16 155.07-35.35L155.07-35.35Q158.24-37.84 164.29-37.84L164.29-37.84Q168.2-37.84 170.58-37.34 172.96-36.84 173.79-36.52L173.79-36.52 172.69-32.67Q167.93-34.33 164.55-34.33 161.17-34.33 159.35-33.51 157.53-32.69 156.51-30.81L156.51-30.81Q154.72-27.59 154.72-18.53L154.72-18.53 154.72-16.72Q154.72-9.28 156.65-6.32L156.65-6.32Q158.8-3.03 164.49-3.03L164.49-3.03Z" opacity="1" transform="matrix(1,0,0,1,0,0)" fill="#e6b17e" class="undefined-text-0" data-fill-palette-color="primary" id="text-0"></path></svg></g></svg></g><g transform="matrix(1,0,0,1,0,115.67303421293933)"><svg viewBox="0 0 395.52 15.047197874171935" height="15.047197874171935" width="395.52"><g transform="matrix(1,0,0,1,0,0)"><svg width="395.52" viewBox="3.6600000858306885 -34.54999923706055 1304.6400146484375 49.63999938964844" height="15.047197874171935" data-palette-color="#c56e33"><path d="M3.66 0L3.66-3.91 10.25-3.91 10.25-26.49 3.66-26.49 3.66-30.4 19.53-30.4 30.98-10.13 41.63-30.4 57.5-30.4 57.5-26.49 50.95-26.49 50.95-3.91 57.5-3.91 57.5 0 39.79 0 39.79-3.91 45.41-3.91 45.41-26.71 32.3-1.73 29.35-1.73 15.8-25.93 15.8-3.91 21.36-3.91 21.36 0 3.66 0ZM52.66-5.37L52.66-24.78 59.25-24.78 59.25-29.17 60.23-29.17 60.23-23.85 53.64-23.85 53.64-5.37 52.66-5.37ZM31.32-13.18L22.29-29.15 23.36-29.15 31.88-14.21 31.32-13.18ZM5.13-23.85L5.13-24.78 9.23-24.78 9.23-23.85 5.13-23.85ZM31.05 0L33.45 0 44.24-20.61 44.24-18.58 34.08 0.93 31.57 0.93 31.05 0ZM17.5-5.37L17.5-20.31 18.48-18.58 18.48-5.37 17.5-5.37ZM41.26 1.71L59.25 1.71 59.25-2.54 60.23-2.54 60.23 2.64 41.26 2.64 41.26 1.71ZM5.13 1.71L23.12 1.71 23.12-2.54 24.1-2.54 24.1 2.64 5.13 2.64 5.13 1.71ZM66.09-11.69L66.09-11.69Q66.09-13.96 67.04-16.21 67.99-18.46 69.86-20.25 71.73-22.05 74.49-23.17 77.25-24.29 80.83-24.29L80.83-24.29Q81.98-24.29 83.29-24.12 84.59-23.95 85.9-23.56 87.21-23.17 88.45-22.52 89.7-21.88 90.72-20.95L90.72-20.95 90.72-23.56 101.22-23.56 101.22-19.41 95.85-19.41 95.85-3.66 101.22-3.66 101.22 0 90.72 0 90.72-3.17Q89.77-2.22 88.56-1.49 87.35-0.76 86-0.27 84.64 0.22 83.19 0.48 81.74 0.73 80.3 0.73L80.3 0.73Q76.78 0.73 74.12-0.27 71.46-1.27 69.68-2.97 67.9-4.66 66.99-6.92 66.09-9.18 66.09-11.69ZM97.61-5.13L97.61-17.7 102.98-17.7 102.98-21.7 103.96-21.7 103.96-16.77 98.58-16.77 98.58-5.13 97.61-5.13ZM71.39-11.89L71.39-11.89Q71.39-9.86 72.11-8.23 72.83-6.59 74.07-5.44 75.32-4.3 77.03-3.66 78.74-3.03 80.71-3.03L80.71-3.03Q81.86-3.03 83.04-3.26 84.23-3.49 85.34-3.97 86.45-4.44 87.44-5.16 88.43-5.88 89.15-6.87 89.87-7.86 90.3-9.13 90.72-10.4 90.72-11.96L90.72-11.96Q90.72-13.7 89.92-15.25 89.11-16.8 87.76-17.97 86.4-19.14 84.59-19.82 82.79-20.51 80.79-20.51L80.79-20.51Q78.78-20.51 77.06-19.9 75.34-19.29 74.08-18.16 72.83-17.04 72.11-15.44 71.39-13.84 71.39-11.89ZM73.07-11.77L73.07-11.77Q73.07-13.31 73.65-14.59 74.22-15.87 75.24-16.81 76.27-17.75 77.69-18.27 79.1-18.8 80.79-18.8L80.79-18.8Q82.06-18.8 83.08-18.52 84.11-18.24 84.86-17.83 85.62-17.43 86.11-17 86.6-16.58 86.79-16.26L86.79-16.26Q85.47-16.99 84.08-17.43 82.69-17.87 80.79-17.87L80.79-17.87Q79.25-17.87 78.02-17.37 76.78-16.87 75.9-16.02 75.02-15.16 74.55-14.04 74.07-12.92 74.07-11.67L74.07-11.67Q74.07-10.5 74.34-9.47 74.61-8.45 75.21-7.58 75.81-6.71 76.77-5.99 77.73-5.27 79.1-4.74L79.1-4.74Q77.56-5 76.43-5.65 75.29-6.3 74.55-7.23 73.8-8.15 73.44-9.31 73.07-10.47 73.07-11.77ZM92.19 1.71L102.98 1.71 102.98-2.29 103.96-2.29 103.96 2.64 92.19 2.64 92.19 1.71ZM69.24-1.05L69.24-1.05Q70.24-0.24 71.51 0.4 72.78 1.05 74.22 1.5 75.66 1.95 77.21 2.2 78.76 2.44 80.32 2.44L80.32 2.44Q83.03 2.44 85.39 1.77 87.74 1.1 89.58-0.1L89.58-0.1 89.58 1.03Q87.74 2.12 85.34 2.75 82.93 3.37 80.35 3.37L80.35 3.37Q78.56 3.37 76.86 3.09 75.15 2.81 73.68 2.25 72.22 1.68 71.07 0.85 69.92 0.02 69.24-1.05ZM115.19-29.64L115.19-34.52 121.17-34.52 121.17-29.64 115.19-29.64ZM116.65-27L116.65-27.93 122.92-27.93 122.92-33.15 123.9-33.15 123.9-27 116.65-27ZM110.06 0L110.06-3.66 116.65-3.66 115.92-19.41 110.06-19.41 110.06-23.56 121.17-23.56 121.17-3.66 126.78-3.66 126.78 0 110.06 0ZM122.88-5.13L122.88-22.31 123.85-22.31 123.85-5.13 122.88-5.13ZM111.52-16.77L111.52-17.7 114.89-17.7 114.89-16.77 111.52-16.77ZM111.52 1.71L128.54 1.71 128.54-2.29 129.52-2.29 129.52 2.64 111.52 2.64 111.52 1.71ZM133.96 0L133.96-3.66 139.33-3.66 139.33-19.41 133.96-19.41 133.96-23.56 144.58-23.56 144.58-19.87Q145.34-20.8 146.4-21.61 147.46-22.41 148.78-23.01 150.1-23.61 151.64-23.95 153.17-24.29 154.86-24.29L154.86-24.29Q157.4-24.29 159.47-23.57 161.55-22.85 163.01-21.35 164.48-19.85 165.27-17.57 166.06-15.28 166.06-12.16L166.06-12.16 166.06-3.66 171.44-3.66 171.44 0 156.67 0 156.67-3.66 160.82-3.66 160.82-10.08Q160.82-12.06 160.63-13.61 160.45-15.16 160.11-16.04L160.11-16.04Q159.67-17.16 159-17.94 158.33-18.73 157.48-19.21 156.64-19.7 155.64-19.92 154.64-20.14 153.52-20.14L153.52-20.14Q152.32-20.14 151.04-19.7 149.76-19.26 148.55-18.47 147.34-17.68 146.3-16.6 145.26-15.53 144.58-14.28L144.58-14.28 144.58-3.66 148.73-3.66 148.73 0 133.96 0ZM167.82-5.13L167.82-11.99Q167.82-14.14 167.49-15.98 167.16-17.82 166.5-19.3 165.84-20.78 164.88-21.85 163.92-22.92 162.65-23.56L162.65-23.56Q164.31-23.14 165.48-22.16 166.65-21.17 167.38-19.65 168.12-18.14 168.46-16.16 168.8-14.18 168.8-11.82L168.8-11.82 168.8-5.13 167.82-5.13ZM146.34-5.13L146.34-13.67Q146.95-14.75 147.79-15.63 148.63-16.5 149.62-17.13 150.61-17.75 151.7-18.09 152.78-18.43 153.86-18.43L153.86-18.43Q155.54-18.43 156.59-17.8 157.64-17.16 158.13-16.19L158.13-16.19Q157.37-16.75 156.36-17.14 155.35-17.53 153.81-17.53L153.81-17.53Q152.86-17.53 151.88-17.18 150.9-16.82 150.02-16.24 149.15-15.65 148.44-14.89 147.73-14.14 147.31-13.35L147.31-13.35 147.31-5.13 146.34-5.13ZM135.42-16.77L135.42-17.7 138.31-17.7 138.31-16.77 135.42-16.77ZM158.13 1.71L173.19 1.71 173.19-2.29 174.17-2.29 174.17 2.64 158.13 2.64 158.13 1.71ZM135.42 1.71L150.49 1.71 150.49-2.29 151.46-2.29 151.46 2.64 135.42 2.64 135.42 1.71ZM182.4-8.74L182.4-19.41 177.03-19.41 177.03-23.56 182.4-23.56 182.4-28.49 187.65-30.69 187.65-23.56 199.78-23.56 199.78-19.41 187.65-19.41 187.65-7.76Q187.65-5.93 188.79-5.04 189.94-4.15 191.92-4.15L191.92-4.15 198.8-4.15 198.8 0 191.92 0Q189.94 0 188.21-0.43 186.47-0.85 185.18-1.87 183.89-2.88 183.14-4.55 182.4-6.23 182.4-8.74L182.4-8.74ZM189.4-25.02L189.4-29.35 190.38-29.79 190.38-25.02 189.4-25.02ZM189.36-6.76L189.36-17.97 201.54-17.97 201.54-22.46 202.51-22.46 202.51-17.04 190.33-17.04 190.33-5.79Q189.5-6.01 189.36-6.76L189.36-6.76ZM178.49-16.77L178.49-17.7 181.42-17.7 181.42-16.77 178.49-16.77ZM182.25-2.1L182.25-2.1Q183.03-1 184-0.27 184.96 0.46 186.16 0.9 187.35 1.34 188.77 1.53 190.19 1.71 191.87 1.71L191.87 1.71 200.56 1.71 200.56-3.05 201.54-3.05 201.54 2.64 191.75 2.64Q189.87 2.64 188.33 2.39 186.79 2.15 185.61 1.6 184.42 1.05 183.58 0.13 182.74-0.78 182.25-2.1ZM207.74-11.69L207.74-11.69Q207.74-13.96 208.69-16.21 209.64-18.46 211.51-20.25 213.38-22.05 216.14-23.17 218.9-24.29 222.49-24.29L222.49-24.29Q223.63-24.29 224.94-24.12 226.25-23.95 227.55-23.56 228.86-23.17 230.1-22.52 231.35-21.88 232.37-20.95L232.37-20.95 232.37-23.56 242.87-23.56 242.87-19.41 237.5-19.41 237.5-3.66 242.87-3.66 242.87 0 232.37 0 232.37-3.17Q231.42-2.22 230.21-1.49 229-0.76 227.65-0.27 226.29 0.22 224.84 0.48 223.39 0.73 221.95 0.73L221.95 0.73Q218.43 0.73 215.77-0.27 213.11-1.27 211.33-2.97 209.55-4.66 208.64-6.92 207.74-9.18 207.74-11.69ZM239.26-5.13L239.26-17.7 244.63-17.7 244.63-21.7 245.61-21.7 245.61-16.77 240.23-16.77 240.23-5.13 239.26-5.13ZM213.04-11.89L213.04-11.89Q213.04-9.86 213.76-8.23 214.48-6.59 215.72-5.44 216.97-4.3 218.68-3.66 220.39-3.03 222.36-3.03L222.36-3.03Q223.51-3.03 224.69-3.26 225.88-3.49 226.99-3.97 228.1-4.44 229.09-5.16 230.08-5.88 230.8-6.87 231.52-7.86 231.95-9.13 232.37-10.4 232.37-11.96L232.37-11.96Q232.37-13.7 231.57-15.25 230.76-16.8 229.41-17.97 228.05-19.14 226.25-19.82 224.44-20.51 222.44-20.51L222.44-20.51Q220.43-20.51 218.71-19.9 216.99-19.29 215.73-18.16 214.48-17.04 213.76-15.44 213.04-13.84 213.04-11.89ZM214.72-11.77L214.72-11.77Q214.72-13.31 215.3-14.59 215.87-15.87 216.89-16.81 217.92-17.75 219.34-18.27 220.75-18.8 222.44-18.8L222.44-18.8Q223.71-18.8 224.73-18.52 225.76-18.24 226.51-17.83 227.27-17.43 227.76-17 228.25-16.58 228.44-16.26L228.44-16.26Q227.12-16.99 225.73-17.43 224.34-17.87 222.44-17.87L222.44-17.87Q220.9-17.87 219.67-17.37 218.43-16.87 217.55-16.02 216.67-15.16 216.2-14.04 215.72-12.92 215.72-11.67L215.72-11.67Q215.72-10.5 215.99-9.47 216.26-8.45 216.86-7.58 217.46-6.71 218.42-5.99 219.38-5.27 220.75-4.74L220.75-4.74Q219.21-5 218.08-5.65 216.94-6.3 216.2-7.23 215.45-8.15 215.09-9.31 214.72-10.47 214.72-11.77ZM233.84 1.71L244.63 1.71 244.63-2.29 245.61-2.29 245.61 2.64 233.84 2.64 233.84 1.71ZM210.89-1.05L210.89-1.05Q211.89-0.24 213.16 0.4 214.43 1.05 215.87 1.5 217.31 1.95 218.86 2.2 220.41 2.44 221.97 2.44L221.97 2.44Q224.68 2.44 227.04 1.77 229.39 1.1 231.23-0.1L231.23-0.1 231.23 1.03Q229.39 2.12 226.99 2.75 224.58 3.37 222 3.37L222 3.37Q220.21 3.37 218.51 3.09 216.8 2.81 215.33 2.25 213.87 1.68 212.72 0.85 211.57 0.02 210.89-1.05ZM256.84-29.64L256.84-34.52 262.82-34.52 262.82-29.64 256.84-29.64ZM258.3-27L258.3-27.93 264.58-27.93 264.58-33.15 265.55-33.15 265.55-27 258.3-27ZM251.71 0L251.71-3.66 258.3-3.66 257.57-19.41 251.71-19.41 251.71-23.56 262.82-23.56 262.82-3.66 268.43-3.66 268.43 0 251.71 0ZM264.53-5.13L264.53-22.31 265.5-22.31 265.5-5.13 264.53-5.13ZM253.17-16.77L253.17-17.7 256.54-17.7 256.54-16.77 253.17-16.77ZM253.17 1.71L270.19 1.71 270.19-2.29 271.17-2.29 271.17 2.64 253.17 2.64 253.17 1.71ZM275.61 0L275.61-3.66 280.98-3.66 280.98-19.41 275.61-19.41 275.61-23.56 286.23-23.56 286.23-19.87Q286.99-20.8 288.05-21.61 289.11-22.41 290.43-23.01 291.75-23.61 293.29-23.95 294.82-24.29 296.51-24.29L296.51-24.29Q299.05-24.29 301.12-23.57 303.2-22.85 304.66-21.35 306.13-19.85 306.92-17.57 307.71-15.28 307.71-12.16L307.71-12.16 307.71-3.66 313.09-3.66 313.09 0 298.32 0 298.32-3.66 302.47-3.66 302.47-10.08Q302.47-12.06 302.28-13.61 302.1-15.16 301.76-16.04L301.76-16.04Q301.32-17.16 300.65-17.94 299.98-18.73 299.13-19.21 298.29-19.7 297.29-19.92 296.29-20.14 295.17-20.14L295.17-20.14Q293.97-20.14 292.69-19.7 291.41-19.26 290.2-18.47 288.99-17.68 287.95-16.6 286.91-15.53 286.23-14.28L286.23-14.28 286.23-3.66 290.38-3.66 290.38 0 275.61 0ZM309.47-5.13L309.47-11.99Q309.47-14.14 309.14-15.98 308.81-17.82 308.15-19.3 307.5-20.78 306.53-21.85 305.57-22.92 304.3-23.56L304.3-23.56Q305.96-23.14 307.13-22.16 308.3-21.17 309.03-19.65 309.77-18.14 310.11-16.16 310.45-14.18 310.45-11.82L310.45-11.82 310.45-5.13 309.47-5.13ZM287.99-5.13L287.99-13.67Q288.6-14.75 289.44-15.63 290.28-16.5 291.27-17.13 292.26-17.75 293.35-18.09 294.43-18.43 295.51-18.43L295.51-18.43Q297.19-18.43 298.24-17.8 299.29-17.16 299.78-16.19L299.78-16.19Q299.02-16.75 298.01-17.14 297-17.53 295.46-17.53L295.46-17.53Q294.51-17.53 293.53-17.18 292.55-16.82 291.67-16.24 290.8-15.65 290.09-14.89 289.38-14.14 288.96-13.35L288.96-13.35 288.96-5.13 287.99-5.13ZM277.08-16.77L277.08-17.7 279.96-17.7 279.96-16.77 277.08-16.77ZM299.78 1.71L314.84 1.71 314.84-2.29 315.82-2.29 315.82 2.64 299.78 2.64 299.78 1.71ZM277.08 1.71L292.14 1.71 292.14-2.29 293.12-2.29 293.12 2.64 277.08 2.64 277.08 1.71ZM324.93-29.64L324.93-34.52 330.91-34.52 330.91-29.64 324.93-29.64ZM326.39-27L326.39-27.93 332.67-27.93 332.67-33.15 333.64-33.15 333.64-27 326.39-27ZM319.8 0L319.8-3.66 326.39-3.66 325.66-19.41 319.8-19.41 319.8-23.56 330.91-23.56 330.91-3.66 336.52-3.66 336.52 0 319.8 0ZM332.62-5.13L332.62-22.31 333.59-22.31 333.59-5.13 332.62-5.13ZM321.26-16.77L321.26-17.7 324.63-17.7 324.63-16.77 321.26-16.77ZM321.26 1.71L338.28 1.71 338.28-2.29 339.26-2.29 339.26 2.64 321.26 2.64 321.26 1.71ZM343.7 0L343.7-3.66 349.07-3.66 349.07-19.41 343.7-19.41 343.7-23.56 354.32-23.56 354.32-19.87Q355.08-20.8 356.14-21.61 357.2-22.41 358.52-23.01 359.84-23.61 361.38-23.95 362.92-24.29 364.6-24.29L364.6-24.29Q367.14-24.29 369.21-23.57 371.29-22.85 372.75-21.35 374.22-19.85 375.01-17.57 375.81-15.28 375.81-12.16L375.81-12.16 375.81-3.66 381.18-3.66 381.18 0 366.41 0 366.41-3.66 370.56-3.66 370.56-10.08Q370.56-12.06 370.37-13.61 370.19-15.16 369.85-16.04L369.85-16.04Q369.41-17.16 368.74-17.94 368.07-18.73 367.22-19.21 366.38-19.7 365.38-19.92 364.38-20.14 363.26-20.14L363.26-20.14Q362.06-20.14 360.78-19.7 359.5-19.26 358.29-18.47 357.08-17.68 356.04-16.6 355-15.53 354.32-14.28L354.32-14.28 354.32-3.66 358.47-3.66 358.47 0 343.7 0ZM377.56-5.13L377.56-11.99Q377.56-14.14 377.23-15.98 376.9-17.82 376.25-19.3 375.59-20.78 374.62-21.85 373.66-22.92 372.39-23.56L372.39-23.56Q374.05-23.14 375.22-22.16 376.39-21.17 377.12-19.65 377.86-18.14 378.2-16.16 378.54-14.18 378.54-11.82L378.54-11.82 378.54-5.13 377.56-5.13ZM356.08-5.13L356.08-13.67Q356.69-14.75 357.53-15.63 358.37-16.5 359.36-17.13 360.35-17.75 361.44-18.09 362.52-18.43 363.6-18.43L363.6-18.43Q365.28-18.43 366.33-17.8 367.38-17.16 367.87-16.19L367.87-16.19Q367.11-16.75 366.1-17.14 365.09-17.53 363.55-17.53L363.55-17.53Q362.6-17.53 361.62-17.18 360.64-16.82 359.77-16.24 358.89-15.65 358.18-14.89 357.47-14.14 357.06-13.35L357.06-13.35 357.06-5.13 356.08-5.13ZM345.17-16.77L345.17-17.7 348.05-17.7 348.05-16.77 345.17-16.77ZM367.87 1.71L382.93 1.71 382.93-2.29 383.91-2.29 383.91 2.64 367.87 2.64 367.87 1.71ZM345.17 1.71L360.23 1.71 360.23-2.29 361.21-2.29 361.21 2.64 345.17 2.64 345.17 1.71ZM388.35 7.47L391.09 4.27Q392.29 5.52 393.76 6.36 395.24 7.2 396.77 7.71 398.29 8.23 399.76 8.45 401.22 8.67 402.39 8.67L402.39 8.67Q404.69 8.67 406.52 8.24 408.35 7.81 409.63 6.69 410.91 5.57 411.6 3.61 412.28 1.66 412.28-1.42L412.28-1.42 412.28-3.61Q411.35-2.73 410.18-2.03 409.01-1.32 407.67-0.81 406.32-0.29 404.85-0.02 403.37 0.24 401.86 0.24L401.86 0.24Q398.44 0.24 395.79-0.61 393.14-1.46 391.33-3.04 389.53-4.61 388.59-6.86 387.65-9.11 387.65-11.89L387.65-11.89Q387.65-13.4 388.09-14.9 388.53-16.41 389.39-17.79 390.26-19.17 391.54-20.35 392.82-21.53 394.48-22.41 396.14-23.29 398.19-23.79 400.24-24.29 402.64-24.29L402.64-24.29Q403.76-24.29 405.04-24.08 406.32-23.88 407.59-23.44 408.86-23 410.07-22.3 411.28-21.61 412.28-20.63L412.28-20.63 412.28-23.56 422.78-23.56 422.78-19.41 417.41-19.41 417.41-1.42Q417.41 2.51 416.31 5.18 415.21 7.84 413.23 9.45 411.25 11.06 408.53 11.76 405.81 12.45 402.56 12.45L402.56 12.45Q400.66 12.45 398.66 12.16 396.66 11.87 394.76 11.27 392.87 10.67 391.21 9.73 389.55 8.79 388.35 7.47L388.35 7.47ZM389.79 10.86L389.79 10.86Q391.02 11.74 392.55 12.38 394.09 13.01 395.78 13.4 397.46 13.79 399.19 13.98 400.93 14.16 402.56 14.16L402.56 14.16Q404.79 14.16 406.88 13.83 408.98 13.5 410.83 12.77 412.67 12.04 414.21 10.84 415.75 9.64 416.85 7.9 417.94 6.15 418.55 3.82 419.17 1.49 419.17-1.54L419.17-1.54 419.17-17.7 424.54-17.7 424.54-22.19 425.51-22.19 425.51-16.77 420.14-16.77 420.14-1.54Q420.14 1.64 419.51 4.1 418.87 6.57 417.72 8.42 416.58 10.28 414.97 11.55 413.35 12.82 411.4 13.6 409.45 14.38 407.2 14.73 404.96 15.09 402.56 15.09L402.56 15.09Q400.71 15.09 398.78 14.79 396.85 14.5 395.13 13.95 393.41 13.4 392 12.62 390.6 11.84 389.79 10.86ZM392.94-12.08L392.94-12.08Q392.94-10.21 393.54-8.63 394.14-7.06 395.32-5.92 396.51-4.79 398.25-4.15 400-3.52 402.27-3.52L402.27-3.52Q404.08-3.52 405.87-3.97 407.67-4.42 409.09-5.44 410.52-6.47 411.4-8.13 412.28-9.79 412.28-12.21L412.28-12.21Q412.28-13.94 411.52-15.45 410.77-16.97 409.45-18.09 408.13-19.21 406.36-19.86 404.59-20.51 402.59-20.51L402.59-20.51Q400.63-20.51 398.89-19.9 397.14-19.29 395.83-18.16 394.51-17.04 393.73-15.49 392.94-13.94 392.94-12.08ZM394.65-12.04L394.65-12.04Q394.65-13.43 395.24-14.66 395.83-15.89 396.88-16.81 397.92-17.72 399.39-18.26 400.85-18.8 402.59-18.8L402.59-18.8Q404.91-18.8 406.43-18.05 407.96-17.31 408.84-16.16L408.84-16.16Q408.25-16.53 407.63-16.85 407.01-17.16 406.26-17.4 405.52-17.63 404.61-17.76 403.71-17.9 402.59-17.9L402.59-17.9Q401.05-17.9 399.78-17.42 398.51-16.94 397.6-16.14 396.68-15.33 396.18-14.29 395.68-13.26 395.68-12.13L395.68-12.13Q395.68-9.74 396.81-8.04 397.95-6.35 400.59-5.3L400.59-5.3Q399.32-5.42 398.23-5.96 397.14-6.49 396.35-7.37 395.56-8.25 395.1-9.44 394.65-10.62 394.65-12.04ZM390.6-1.54L390.6-1.54Q391.6-0.73 392.91-0.09 394.21 0.56 395.69 1.01 397.17 1.46 398.74 1.71 400.32 1.95 401.88 1.95L401.88 1.95Q404.59 1.95 406.95 1.31 409.3 0.66 411.13-0.54L411.13-0.54 410.99 0.68Q409.16 1.78 406.82 2.33 404.49 2.88 401.9 2.88L401.9 2.88Q397.95 2.88 395.04 1.77 392.14 0.66 390.6-1.54ZM445.07-7.5L449.88-9.33Q450.71-6.23 453.06-4.76 455.42-3.3 459.13-3.3L459.13-3.3Q460.33-3.3 461.38-3.53 462.43-3.76 463.27-4.24 464.11-4.71 464.71-5.44 465.31-6.18 465.6-7.18L465.6-7.18Q465.82-8.01 465.92-9.33 466.02-10.64 466.02-12.84L466.02-12.84 466.02-26.49 454.37-26.49 454.37-30.4 477.66-30.4 477.66-26.49 471.56-26.49 471.56-12.65Q471.56-10.45 471.39-8.85 471.22-7.25 470.87-6.23L470.87-6.23Q470.29-4.42 469.21-3.11 468.14-1.81 466.61-0.95 465.09-0.1 463.15 0.32 461.21 0.73 458.91 0.73L458.91 0.73Q455.79 0.73 453.47 0.2 451.15-0.34 449.49-1.39 447.83-2.44 446.75-3.98 445.68-5.52 445.07-7.5L445.07-7.5ZM447.92-0.56L447.92-0.56Q450.22 0.9 452.88 1.61 455.54 2.32 458.96 2.32L458.96 2.32Q461.38 2.32 463.56 1.86 465.75 1.39 467.53 0.4 469.31-0.59 470.63-2.14 471.95-3.69 472.66-5.86L472.66-5.86Q472.97-6.96 473.14-8.56 473.32-10.16 473.32-12.65L473.32-12.65 473.32-24.78 479.42-24.78 479.42-29.17 480.4-29.17 480.4-23.85 474.29-23.85 474.29-12.57Q474.29-10.01 474.12-8.34 473.95-6.67 473.56-5.42L473.56-5.42Q472.83-3.25 471.46-1.61 470.09 0.02 468.24 1.1 466.38 2.17 464.11 2.71 461.84 3.25 459.3 3.25L459.3 3.25Q457.28 3.25 455.6 3.02 453.93 2.78 452.54 2.32 451.15 1.86 450.01 1.14 448.88 0.42 447.92-0.56ZM455.83-23.85L455.83-24.78 464.99-24.78 464.99-23.85 455.83-23.85ZM452.2-8.28L453.13-8.62Q453.44-7.93 453.93-7.36 454.42-6.79 454.99-6.32 455.57-5.86 456.18-5.53 456.79-5.2 457.37-5L457.37-5Q455.44-5.22 454.15-6.09 452.86-6.96 452.2-8.28L452.2-8.28ZM485.03-11.69L485.03-11.69Q485.03-13.96 485.99-16.21 486.94-18.46 488.81-20.25 490.67-22.05 493.43-23.17 496.19-24.29 499.78-24.29L499.78-24.29Q500.93-24.29 502.23-24.12 503.54-23.95 504.85-23.56 506.15-23.17 507.4-22.52 508.64-21.88 509.67-20.95L509.67-20.95 509.67-23.56 520.17-23.56 520.17-19.41 514.79-19.41 514.79-3.66 520.17-3.66 520.17 0 509.67 0 509.67-3.17Q508.72-2.22 507.51-1.49 506.3-0.76 504.94-0.27 503.59 0.22 502.14 0.48 500.68 0.73 499.24 0.73L499.24 0.73Q495.73 0.73 493.07-0.27 490.41-1.27 488.62-2.97 486.84-4.66 485.94-6.92 485.03-9.18 485.03-11.69ZM516.55-5.13L516.55-17.7 521.92-17.7 521.92-21.7 522.9-21.7 522.9-16.77 517.53-16.77 517.53-5.13 516.55-5.13ZM490.33-11.89L490.33-11.89Q490.33-9.86 491.05-8.23 491.77-6.59 493.02-5.44 494.26-4.3 495.97-3.66 497.68-3.03 499.66-3.03L499.66-3.03Q500.81-3.03 501.99-3.26 503.17-3.49 504.28-3.97 505.4-4.44 506.38-5.16 507.37-5.88 508.09-6.87 508.81-7.86 509.24-9.13 509.67-10.4 509.67-11.96L509.67-11.96Q509.67-13.7 508.86-15.25 508.06-16.8 506.7-17.97 505.35-19.14 503.54-19.82 501.73-20.51 499.73-20.51L499.73-20.51Q497.73-20.51 496.01-19.9 494.29-19.29 493.03-18.16 491.77-17.04 491.05-15.44 490.33-13.84 490.33-11.89ZM492.02-11.77L492.02-11.77Q492.02-13.31 492.59-14.59 493.16-15.87 494.19-16.81 495.21-17.75 496.63-18.27 498.05-18.8 499.73-18.8L499.73-18.8Q501-18.8 502.03-18.52 503.05-18.24 503.81-17.83 504.57-17.43 505.05-17 505.54-16.58 505.74-16.26L505.74-16.26Q504.42-16.99 503.03-17.43 501.64-17.87 499.73-17.87L499.73-17.87Q498.19-17.87 496.96-17.37 495.73-16.87 494.85-16.02 493.97-15.16 493.49-14.04 493.02-12.92 493.02-11.67L493.02-11.67Q493.02-10.5 493.29-9.47 493.55-8.45 494.15-7.58 494.75-6.71 495.72-5.99 496.68-5.27 498.05-4.74L498.05-4.74Q496.51-5 495.37-5.65 494.24-6.3 493.49-7.23 492.75-8.15 492.38-9.31 492.02-10.47 492.02-11.77ZM511.13 1.71L521.92 1.71 521.92-2.29 522.9-2.29 522.9 2.64 511.13 2.64 511.13 1.71ZM488.18-1.05L488.18-1.05Q489.18-0.24 490.45 0.4 491.72 1.05 493.16 1.5 494.6 1.95 496.15 2.2 497.71 2.44 499.27 2.44L499.27 2.44Q501.98 2.44 504.33 1.77 506.69 1.1 508.52-0.1L508.52-0.1 508.52 1.03Q506.69 2.12 504.28 2.75 501.88 3.37 499.29 3.37L499.29 3.37Q497.51 3.37 495.8 3.09 494.09 2.81 492.63 2.25 491.16 1.68 490.01 0.85 488.87 0.02 488.18-1.05ZM544.19 0L532.2-19.9 526.93-19.9 526.93-23.56 543.68-23.56 543.68-19.9 538.43-19.9 547.73-4 556.69-19.9 551.1-19.9 551.1-23.56 567.36-23.56 567.36-19.9 562.33-19.9 550.54 0 544.19 0ZM545.9 1.71L551.71 1.71 563.5-18.19 569.12-18.19 569.12-22.19 570.09-22.19 570.09-17.26 564.14-17.26 552.34 2.64 546.26 2.64 545.9 1.71ZM548.1-6.98L541.75-18.19 545.9-18.19 545.43-22.19 546.41-22.19 546.41-17.26 543.46-17.26 548.66-7.91 548.1-6.98ZM552.29-17.26L552.29-18.19 554.49-18.19 553.93-17.26 552.29-17.26ZM528.39-17.26L528.39-18.19 531.93-18.19 532.5-17.26 528.39-17.26ZM573.39-11.69L573.39-11.69Q573.39-13.96 574.34-16.21 575.29-18.46 577.16-20.25 579.03-22.05 581.79-23.17 584.55-24.29 588.13-24.29L588.13-24.29Q589.28-24.29 590.59-24.12 591.89-23.95 593.2-23.56 594.51-23.17 595.75-22.52 597-21.88 598.02-20.95L598.02-20.95 598.02-23.56 608.52-23.56 608.52-19.41 603.15-19.41 603.15-3.66 608.52-3.66 608.52 0 598.02 0 598.02-3.17Q597.07-2.22 595.86-1.49 594.65-0.76 593.3-0.27 591.94 0.22 590.49 0.48 589.04 0.73 587.6 0.73L587.6 0.73Q584.08 0.73 581.42-0.27 578.76-1.27 576.98-2.97 575.2-4.66 574.29-6.92 573.39-9.18 573.39-11.69ZM604.91-5.13L604.91-17.7 610.28-17.7 610.28-21.7 611.25-21.7 611.25-16.77 605.88-16.77 605.88-5.13 604.91-5.13ZM578.69-11.89L578.69-11.89Q578.69-9.86 579.41-8.23 580.13-6.59 581.37-5.44 582.62-4.3 584.33-3.66 586.04-3.03 588.01-3.03L588.01-3.03Q589.16-3.03 590.34-3.26 591.53-3.49 592.64-3.97 593.75-4.44 594.74-5.16 595.73-5.88 596.45-6.87 597.17-7.86 597.6-9.13 598.02-10.4 598.02-11.96L598.02-11.96Q598.02-13.7 597.22-15.25 596.41-16.8 595.06-17.97 593.7-19.14 591.89-19.82 590.09-20.51 588.09-20.51L588.09-20.51Q586.08-20.51 584.36-19.9 582.64-19.29 581.38-18.16 580.13-17.04 579.41-15.44 578.69-13.84 578.69-11.89ZM580.37-11.77L580.37-11.77Q580.37-13.31 580.94-14.59 581.52-15.87 582.54-16.81 583.57-17.75 584.99-18.27 586.4-18.8 588.09-18.8L588.09-18.8Q589.36-18.8 590.38-18.52 591.41-18.24 592.16-17.83 592.92-17.43 593.41-17 593.9-16.58 594.09-16.26L594.09-16.26Q592.77-16.99 591.38-17.43 589.99-17.87 588.09-17.87L588.09-17.87Q586.55-17.87 585.31-17.37 584.08-16.87 583.2-16.02 582.32-15.16 581.85-14.04 581.37-12.92 581.37-11.67L581.37-11.67Q581.37-10.5 581.64-9.47 581.91-8.45 582.51-7.58 583.11-6.71 584.07-5.99 585.03-5.27 586.4-4.74L586.4-4.74Q584.86-5 583.73-5.65 582.59-6.3 581.85-7.23 581.1-8.15 580.74-9.31 580.37-10.47 580.37-11.77ZM599.49 1.71L610.28 1.71 610.28-2.29 611.25-2.29 611.25 2.64 599.49 2.64 599.49 1.71ZM576.54-1.05L576.54-1.05Q577.54-0.24 578.81 0.4 580.08 1.05 581.52 1.5 582.96 1.95 584.51 2.2 586.06 2.44 587.62 2.44L587.62 2.44Q590.33 2.44 592.69 1.77 595.04 1.1 596.88-0.1L596.88-0.1 596.88 1.03Q595.04 2.12 592.64 2.75 590.23 3.37 587.65 3.37L587.65 3.37Q585.86 3.37 584.16 3.09 582.45 2.81 580.98 2.25 579.52 1.68 578.37 0.85 577.22 0.02 576.54-1.05ZM633.59 0L633.59-3.66 638.96-3.66 638.96-16.72 633.59-16.72 633.59-20.39 638.96-20.39 638.96-23.93Q638.96-26.27 639.73-28.22 640.5-30.18 641.92-31.58 643.33-32.98 645.36-33.76 647.39-34.55 649.93-34.55L649.93-34.55Q652.15-34.55 653.86-34 655.57-33.45 656.77-32.48 657.98-31.52 658.72-30.2 659.45-28.88 659.74-27.32L659.74-27.32 654.71-27.32Q654.49-27.83 654.15-28.33 653.81-28.83 653.25-29.24 652.69-29.64 651.88-29.9 651.07-30.15 649.93-30.15L649.93-30.15Q648.83-30.15 647.79-29.8 646.75-29.44 645.96-28.72 645.17-28 644.69-26.9 644.21-25.81 644.21-24.34L644.21-24.34 644.21-20.39 655.52-20.39 655.52-16.72 644.21-16.72 644.21-3.66 652.51-3.66 652.51 0 633.59 0ZM656.18-24.68L656.18-25.61 661.5-25.61 661.5-25.93Q661.5-27.08 661.25-28.14 661.01-29.2 660.6-30.15 660.18-31.1 659.63-31.91 659.08-32.71 658.47-33.35L658.47-33.35Q659.45-32.86 660.21-31.98 660.96-31.1 661.46-30.09 661.96-29.08 662.22-28.08 662.48-27.08 662.48-26.34L662.48-26.34 662.48-24.68 656.18-24.68ZM645.92-22.09L645.92-22.63Q645.92-24.37 646.26-25.51 646.61-26.66 647.19-27.33 647.78-28 648.55-28.27 649.32-28.54 650.17-28.54L650.17-28.54Q650.78-28.54 651.28-28.39 651.78-28.25 652.15-28.03 652.51-27.81 652.76-27.55 653-27.29 653.13-27.05L653.13-27.05Q652.22-27.51 651.37-27.6 650.51-27.69 650.12-27.69L650.12-27.69Q649.51-27.69 648.94-27.49 648.36-27.29 647.91-26.75 647.46-26.2 647.18-25.21 646.9-24.22 646.9-22.61L646.9-22.61 646.9-22.09 645.92-22.09ZM645.92-5.13L645.92-15.01 657.28-15.01 657.28-19.02 658.25-19.02 658.25-14.09 646.9-14.09 646.9-5.13 645.92-5.13ZM635.06-14.09L635.06-15.01 637.99-15.01 637.99-14.09 635.06-14.09ZM635.06 1.71L654.27 1.71 654.27-2.29 655.25-2.29 655.25 2.64 635.06 2.64 635.06 1.71ZM665.53 0L665.53-3.66 670.9-3.66 670.9-19.41 665.53-19.41 665.53-23.56 676.15-23.56 676.15-19.48Q676.9-20.46 677.97-21.34 679.03-22.22 680.37-22.88 681.71-23.54 683.3-23.91 684.89-24.29 686.69-24.29L686.69-24.29Q687.23-24.29 688.04-24.26 688.84-24.22 689.58-24.1L689.58-24.1 689.58-19.31Q688.72-19.51 687.89-19.58 687.06-19.65 686.28-19.65L686.28-19.65Q684.33-19.65 682.58-19.03 680.83-18.41 679.47-17.22 678.1-16.04 677.22-14.33 676.34-12.62 676.15-10.42L676.15-10.42 676.15-3.66 684.94-3.66 684.94 0 665.53 0ZM677.86-5.13L677.86-8.23Q677.86-10.52 678.44-12.33 679.03-14.14 680.11-15.38 681.2-16.63 682.76-17.29 684.33-17.94 686.28-17.94L686.28-17.94Q686.69-17.94 687.33-17.88 687.96-17.82 688.66-17.7 689.36-17.58 690.06-17.4 690.77-17.21 691.33-16.97L691.33-16.97 691.33-22.73 692.31-22.73 692.31-15.75Q691.63-16.04 690.83-16.27 690.04-16.5 689.22-16.67 688.4-16.85 687.65-16.93 686.89-17.02 686.28-17.02L686.28-17.02Q684.5-17.02 683.12-16.43 681.74-15.84 680.79-14.75 679.83-13.65 679.33-12.06 678.83-10.47 678.83-8.47L678.83-8.47 678.83-5.13 677.86-5.13ZM666.99-16.77L666.99-17.7 669.87-17.7 669.87-16.77 666.99-16.77ZM666.99 1.71L686.69 1.71 686.69-2.29 687.67-2.29 687.67 2.64 666.99 2.64 666.99 1.71ZM696.83-11.4L696.83-11.4Q696.83-14.06 697.97-16.42 699.12-18.77 701.18-20.52 703.25-22.27 706.13-23.28 709.01-24.29 712.45-24.29L712.45-24.29Q716.06-24.29 718.91-23.33 721.75-22.36 723.72-20.65 725.68-18.95 726.72-16.6 727.76-14.26 727.76-11.5L727.76-11.5Q727.76-8.84 726.62-6.59 725.49-4.35 723.4-2.72 721.31-1.1 718.4-0.18 715.48 0.73 711.89 0.73L711.89 0.73Q708.5 0.73 705.73-0.28 702.95-1.29 700.98-2.98 699-4.66 697.91-6.85 696.83-9.03 696.83-11.4ZM700.66-1.12L700.66-1.12Q703.03 0.59 705.9 1.51 708.76 2.44 712.38 2.44L712.38 2.44Q715.75 2.44 718.85 1.53 721.95 0.61 724.32-1.17 726.68-2.95 728.1-5.55 729.52-8.15 729.52-11.5L729.52-11.5Q729.52-13.13 729.06-14.81 728.61-16.48 727.8-18.02 726.98-19.56 725.81-20.89 724.63-22.22 723.19-23.14L723.19-23.14Q724.83-22.41 726.18-21.22 727.54-20.02 728.49-18.49 729.44-16.97 729.97-15.19 730.49-13.4 730.49-11.5L730.49-11.5Q730.49-9.11 729.81-7.07 729.13-5.03 727.92-3.38 726.71-1.73 725.04-0.46 723.36 0.81 721.36 1.65 719.36 2.49 717.1 2.93 714.84 3.37 712.5 3.37L712.5 3.37Q710.55 3.37 708.76 3.06 706.98 2.76 705.46 2.19 703.93 1.61 702.71 0.78 701.49-0.05 700.66-1.12ZM702.25-11.5L702.25-11.5Q702.25-9.62 702.97-8.07 703.69-6.52 705-5.41 706.32-4.3 708.17-3.69 710.01-3.08 712.26-3.08L712.26-3.08Q714.53-3.08 716.38-3.7 718.24-4.32 719.58-5.43 720.92-6.54 721.66-8.09 722.39-9.64 722.39-11.5L722.39-11.5Q722.39-13.33 721.66-14.95 720.92-16.58 719.6-17.81 718.29-19.04 716.44-19.76 714.6-20.48 712.38-20.48L712.38-20.48Q710.06-20.48 708.19-19.79 706.32-19.09 705-17.88 703.69-16.67 702.97-15.04 702.25-13.4 702.25-11.5ZM703.96-11.4L703.96-11.4Q703.96-12.94 704.57-14.29 705.18-15.65 706.29-16.64 707.4-17.63 708.95-18.2 710.5-18.77 712.38-18.77L712.38-18.77Q713.57-18.77 714.7-18.52 715.82-18.26 716.77-17.77 717.72-17.29 718.46-16.59 719.19-15.89 719.63-15.01L719.63-15.01Q718.02-16.48 716.27-17.16 714.53-17.85 712.33-17.85L712.33-17.85Q710.74-17.85 709.4-17.33 708.06-16.82 707.06-15.94 706.05-15.06 705.49-13.89 704.93-12.72 704.93-11.4L704.93-11.4Q704.93-10.3 705.2-9.35 705.47-8.4 706.12-7.58 706.76-6.76 707.84-6.1 708.91-5.44 710.52-4.93L710.52-4.93Q709.06-5.03 707.85-5.55 706.64-6.08 705.77-6.93 704.91-7.79 704.43-8.94 703.96-10.08 703.96-11.4ZM737.13 0L737.13-3.66 742.5-3.66 742.5-19.41 737.13-19.41 737.13-23.56 747.75-23.56 747.75-19.9Q748.49-20.83 749.51-21.63 750.54-22.44 751.82-23.02 753.1-23.61 754.6-23.95 756.1-24.29 757.79-24.29L757.79-24.29Q761.23-24.29 763.68-22.95 766.14-21.61 767.48-18.8L767.48-18.8Q768.38-20 769.59-21.01 770.8-22.02 772.24-22.75 773.68-23.49 775.33-23.89 776.98-24.29 778.78-24.29L778.78-24.29Q781.3-24.29 783.33-23.56 785.35-22.83 786.78-21.33 788.21-19.82 788.98-17.54 789.75-15.26 789.75-12.16L789.75-12.16 789.75-3.66 795.12-3.66 795.12 0 780.35 0 780.35-3.66 784.5-3.66 784.5-9.96Q784.5-12.26 784.3-13.96 784.11-15.67 783.64-16.6L783.64-16.6Q782.71-18.53 781.14-19.34 779.57-20.14 777.44-20.14L777.44-20.14Q776.22-20.14 774.95-19.69 773.68-19.24 772.51-18.43 771.34-17.63 770.34-16.53 769.34-15.43 768.65-14.16L768.65-14.16Q768.7-13.67 768.73-13.17 768.75-12.67 768.75-12.16L768.75-12.16 768.75-3.66 772.9-3.66 772.9 0 759.35 0 759.35-3.66 763.5-3.66 763.5-10.08Q763.5-12.06 763.32-13.61 763.13-15.16 762.79-16.04L762.79-16.04Q761.94-18.26 760.3-19.2 758.67-20.14 756.45-20.14L756.45-20.14Q755.22-20.14 753.98-19.7 752.73-19.26 751.57-18.48 750.42-17.7 749.43-16.63 748.44-15.55 747.75-14.31L747.75-14.31 747.75-3.66 751.9-3.66 751.9 0 737.13 0ZM786.33-23.56L786.33-23.56Q787.99-23.14 789.16-22.16 790.33-21.17 791.06-19.65 791.8-18.14 792.14-16.16 792.48-14.18 792.48-11.82L792.48-11.82 792.48-5.13 791.5-5.13 791.5-11.99Q791.5-14.14 791.17-15.98 790.84-17.82 790.19-19.3 789.53-20.78 788.56-21.85 787.6-22.92 786.33-23.56ZM765.33-23.56L765.33-23.56Q766.5-23.41 767.4-22.9 768.29-22.39 768.77-21.78L768.77-21.78 768.07-21.12Q767.92-21.41 767.61-21.78 767.31-22.14 766.93-22.5 766.55-22.85 766.13-23.13 765.7-23.41 765.33-23.56ZM770.51-5.13L770.51-13.67Q771.12-14.75 771.92-15.63 772.73-16.5 773.66-17.13 774.58-17.75 775.61-18.09 776.64-18.43 777.71-18.43L777.71-18.43Q779.39-18.43 780.48-17.8 781.57-17.16 782.06-16.19L782.06-16.19Q781.3-16.75 780.25-17.13 779.2-17.5 777.66-17.5L777.66-17.5Q776.71-17.5 775.77-17.18 774.83-16.85 774.01-16.28 773.19-15.72 772.53-14.99 771.88-14.26 771.48-13.48L771.48-13.48 771.48-5.13 770.51-5.13ZM749.51-5.13L749.51-13.67Q750.12-14.75 750.93-15.63 751.73-16.5 752.66-17.13 753.59-17.75 754.61-18.09 755.64-18.43 756.71-18.43L756.71-18.43Q758.4-18.43 759.48-17.8 760.57-17.16 761.06-16.19L761.06-16.19Q760.3-16.75 759.25-17.13 758.2-17.5 756.67-17.5L756.67-17.5Q755.71-17.5 754.77-17.18 753.83-16.85 753.02-16.28 752.2-15.72 751.54-14.99 750.88-14.26 750.49-13.48L750.49-13.48 750.49-5.13 749.51-5.13ZM738.6-16.77L738.6-17.7 741.48-17.7 741.48-16.77 738.6-16.77ZM781.81 1.71L796.88 1.71 796.88-2.29 797.85-2.29 797.85 2.64 781.81 2.64 781.81 1.71ZM760.82 1.71L774.66 1.71 774.66-2.29 775.63-2.29 775.63 2.64 760.82 2.64 760.82 1.71ZM738.6 1.71L753.66 1.71 753.66-2.29 754.64-2.29 754.64 2.64 738.6 2.64 738.6 1.71ZM821.95-8.74L821.95-19.41 816.58-19.41 816.58-23.56 821.95-23.56 821.95-28.49 827.2-30.69 827.2-23.56 839.33-23.56 839.33-19.41 827.2-19.41 827.2-7.76Q827.2-5.93 828.34-5.04 829.49-4.15 831.47-4.15L831.47-4.15 838.35-4.15 838.35 0 831.47 0Q829.49 0 827.76-0.43 826.03-0.85 824.73-1.87 823.44-2.88 822.69-4.55 821.95-6.23 821.95-8.74L821.95-8.74ZM828.96-25.02L828.96-29.35 829.93-29.79 829.93-25.02 828.96-25.02ZM828.91-6.76L828.91-17.97 841.09-17.97 841.09-22.46 842.07-22.46 842.07-17.04 829.88-17.04 829.88-5.79Q829.05-6.01 828.91-6.76L828.91-6.76ZM818.04-16.77L818.04-17.7 820.97-17.7 820.97-16.77 818.04-16.77ZM821.8-2.1L821.8-2.1Q822.58-1 823.55-0.27 824.51 0.46 825.71 0.9 826.9 1.34 828.32 1.53 829.74 1.71 831.42 1.71L831.42 1.71 840.11 1.71 840.11-3.05 841.09-3.05 841.09 2.64 831.3 2.64Q829.42 2.64 827.88 2.39 826.34 2.15 825.16 1.6 823.97 1.05 823.13 0.13 822.29-0.78 821.8-2.1ZM847.41 0L847.41-3.66 852.78-3.66 852.78-30.15 847.41-30.15 847.41-34.06 858.03-34.06 858.03-19.87Q858.79-20.8 859.85-21.61 860.91-22.41 862.23-23.01 863.55-23.61 865.09-23.95 866.63-24.29 868.31-24.29L868.31-24.29Q870.85-24.29 872.92-23.57 875-22.85 876.46-21.35 877.93-19.85 878.72-17.57 879.52-15.28 879.52-12.16L879.52-12.16 879.52-3.66 884.89-3.66 884.89 0 870.12 0 870.12-3.66 874.27-3.66 874.27-10.08Q874.27-12.06 874.08-13.61 873.9-15.16 873.56-16.04L873.56-16.04Q873.12-17.16 872.45-17.94 871.78-18.73 870.94-19.21 870.09-19.7 869.09-19.92 868.09-20.14 866.97-20.14L866.97-20.14Q865.77-20.14 864.49-19.7 863.21-19.26 862-18.47 860.79-17.68 859.75-16.6 858.72-15.53 858.03-14.28L858.03-14.28 858.03-3.66 862.18-3.66 862.18 0 847.41 0ZM859.74-23.24L859.74-32.81 860.72-32.81 860.72-23.88Q860.5-23.78 860.22-23.61 859.94-23.44 859.74-23.24L859.74-23.24ZM848.88-27.51L848.88-28.44 851.76-28.44 851.76-27.51 848.88-27.51ZM881.27-5.13L881.27-11.99Q881.27-14.14 880.94-15.98 880.62-17.82 879.96-19.3 879.3-20.78 878.33-21.85 877.37-22.92 876.1-23.56L876.1-23.56Q877.76-23.14 878.93-22.16 880.1-21.17 880.83-19.65 881.57-18.14 881.91-16.16 882.25-14.18 882.25-11.82L882.25-11.82 882.25-5.13 881.27-5.13ZM859.79-5.13L859.79-13.67Q860.4-14.75 861.24-15.63 862.08-16.5 863.06-17.13 864.04-17.75 865.1-18.09 866.16-18.43 867.24-18.43L867.24-18.43Q868.92-18.43 870.01-17.8 871.09-17.16 871.58-16.19L871.58-16.19Q870.83-16.75 869.78-17.13 868.73-17.5 867.19-17.5L867.19-17.5Q866.24-17.5 865.26-17.16 864.28-16.82 863.43-16.26 862.57-15.7 861.88-14.97 861.18-14.23 860.77-13.45L860.77-13.45 860.77-5.13 859.79-5.13ZM871.58 1.71L886.65 1.71 886.65-2.29 887.62-2.29 887.62 2.64 871.58 2.64 871.58 1.71ZM848.88 1.71L863.94 1.71 863.94-2.29 864.92-2.29 864.92 2.64 848.88 2.64 848.88 1.71ZM891.65-11.33L891.65-11.33Q891.65-13.92 892.6-16.26 893.55-18.6 895.46-20.39 897.36-22.17 900.2-23.23 903.03-24.29 906.76-24.29L906.76-24.29Q910.28-24.29 913.04-23.35 915.8-22.41 917.72-20.63 919.65-18.85 920.67-16.27 921.68-13.7 921.68-10.4L921.68-10.4 897-10.4Q897.22-8.64 898.13-7.28 899.05-5.91 900.46-4.97 901.88-4.03 903.67-3.54 905.47-3.05 907.42-3.05L907.42-3.05Q909.01-3.05 910.66-3.31 912.3-3.56 913.77-4 915.23-4.44 916.38-4.99 917.53-5.54 918.14-6.13L918.14-6.13 919.07-6.13 921.36-3.64Q918.85-1.49 915.25-0.38 911.65 0.73 907.3 0.73L907.3 0.73Q903.52 0.73 900.6-0.2 897.68-1.12 895.69-2.76 893.7-4.39 892.68-6.59 891.65-8.79 891.65-11.33ZM899.34-8.69L923.34-8.69Q923.39-9.06 923.41-9.48 923.44-9.91 923.44-10.4L923.44-10.4Q923.44-12.48 923.01-14.37 922.58-16.26 921.77-17.88 920.95-19.51 919.75-20.85 918.55-22.19 917.04-23.14L917.04-23.14Q918.65-22.51 920.01-21.4 921.36-20.29 922.34-18.7 923.32-17.11 923.86-15.04 924.41-12.96 924.41-10.4L924.41-10.4Q924.41-10.21 924.4-9.91 924.39-9.62 924.37-9.25 924.34-8.89 924.3-8.51 924.27-8.13 924.22-7.76L924.22-7.76 901.15-7.76Q901.61-6.98 902.86-6.16 904.1-5.35 906.08-4.79L906.08-4.79Q904.86-4.79 903.8-5.08 902.73-5.37 901.87-5.88 901-6.4 900.35-7.12 899.71-7.84 899.34-8.69L899.34-8.69ZM897.14-13.45L916.04-13.45Q915.65-15.14 914.83-16.46 914.01-17.77 912.82-18.66 911.62-19.56 910.08-20.03 908.54-20.51 906.71-20.51L906.71-20.51Q904.74-20.51 903.11-19.98 901.49-19.46 900.27-18.52 899.05-17.58 898.25-16.28 897.46-14.99 897.14-13.45L897.14-13.45ZM900.49-14.5L899.37-14.5Q900.27-16.5 902.21-17.65 904.15-18.8 906.71-18.8L906.71-18.8Q907.76-18.8 908.75-18.63 909.74-18.46 910.58-18.1 911.43-17.75 912.06-17.24 912.7-16.72 913.06-16.06L913.06-16.06Q911.67-16.99 910.08-17.43 908.5-17.87 906.67-17.87L906.67-17.87Q904.54-17.87 902.93-16.99 901.32-16.11 900.49-14.5L900.49-14.5ZM894.6-1.07L894.6-1.07Q896.97 0.61 900.11 1.54 903.25 2.47 907.3 2.47L907.3 2.47Q911.25 2.47 914.71 1.56 918.16 0.66 920.95-1.2L920.95-1.2 921.61-0.49Q918.46 1.64 914.98 2.51 911.5 3.39 907.69 3.39L907.69 3.39Q902.73 3.39 899.48 2.2 896.22 1 894.6-1.07ZM946.51 0L946.51-3.91 953.1-3.91 953.1-26.49 946.51-26.49 946.51-30.4 962.38-30.4 973.83-10.13 984.47-30.4 1000.34-30.4 1000.34-26.49 993.8-26.49 993.8-3.91 1000.34-3.91 1000.34 0 982.64 0 982.64-3.91 988.26-3.91 988.26-26.71 975.15-1.73 972.19-1.73 958.64-25.93 958.64-3.91 964.21-3.91 964.21 0 946.51 0ZM995.51-5.37L995.51-24.78 1002.1-24.78 1002.1-29.17 1003.08-29.17 1003.08-23.85 996.48-23.85 996.48-5.37 995.51-5.37ZM974.17-13.18L965.14-29.15 966.21-29.15 974.73-14.21 974.17-13.18ZM947.97-23.85L947.97-24.78 952.08-24.78 952.08-23.85 947.97-23.85ZM973.9 0L976.29 0 987.08-20.61 987.08-18.58 976.93 0.93 974.41 0.93 973.9 0ZM960.35-5.37L960.35-20.31 961.33-18.58 961.33-5.37 960.35-5.37ZM984.11 1.71L1002.1 1.71 1002.1-2.54 1003.08-2.54 1003.08 2.64 984.11 2.64 984.11 1.71ZM947.97 1.71L965.97 1.71 965.97-2.54 966.94-2.54 966.94 2.64 947.97 2.64 947.97 1.71ZM1008.94-11.4L1008.94-11.4Q1008.94-14.06 1010.08-16.42 1011.23-18.77 1013.29-20.52 1015.36-22.27 1018.24-23.28 1021.12-24.29 1024.56-24.29L1024.56-24.29Q1028.17-24.29 1031.02-23.33 1033.86-22.36 1035.83-20.65 1037.79-18.95 1038.83-16.6 1039.87-14.26 1039.87-11.5L1039.87-11.5Q1039.87-8.84 1038.73-6.59 1037.6-4.35 1035.51-2.72 1033.42-1.1 1030.51-0.18 1027.59 0.73 1024 0.73L1024 0.73Q1020.61 0.73 1017.83-0.28 1015.06-1.29 1013.09-2.98 1011.11-4.66 1010.02-6.85 1008.94-9.03 1008.94-11.4ZM1012.77-1.12L1012.77-1.12Q1015.14 0.59 1018.01 1.51 1020.87 2.44 1024.49 2.44L1024.49 2.44Q1027.86 2.44 1030.96 1.53 1034.06 0.61 1036.43-1.17 1038.79-2.95 1040.21-5.55 1041.63-8.15 1041.63-11.5L1041.63-11.5Q1041.63-13.13 1041.17-14.81 1040.72-16.48 1039.9-18.02 1039.09-19.56 1037.92-20.89 1036.74-22.22 1035.3-23.14L1035.3-23.14Q1036.94-22.41 1038.29-21.22 1039.65-20.02 1040.6-18.49 1041.55-16.97 1042.08-15.19 1042.6-13.4 1042.6-11.5L1042.6-11.5Q1042.6-9.11 1041.92-7.07 1041.24-5.03 1040.03-3.38 1038.82-1.73 1037.15-0.46 1035.47 0.81 1033.47 1.65 1031.47 2.49 1029.21 2.93 1026.95 3.37 1024.61 3.37L1024.61 3.37Q1022.66 3.37 1020.87 3.06 1019.09 2.76 1017.57 2.19 1016.04 1.61 1014.82 0.78 1013.6-0.05 1012.77-1.12ZM1014.36-11.5L1014.36-11.5Q1014.36-9.62 1015.08-8.07 1015.8-6.52 1017.11-5.41 1018.43-4.3 1020.28-3.69 1022.12-3.08 1024.37-3.08L1024.37-3.08Q1026.64-3.08 1028.49-3.7 1030.35-4.32 1031.69-5.43 1033.03-6.54 1033.76-8.09 1034.5-9.64 1034.5-11.5L1034.5-11.5Q1034.5-13.33 1033.76-14.95 1033.03-16.58 1031.71-17.81 1030.4-19.04 1028.55-19.76 1026.71-20.48 1024.49-20.48L1024.49-20.48Q1022.17-20.48 1020.3-19.79 1018.43-19.09 1017.11-17.88 1015.8-16.67 1015.08-15.04 1014.36-13.4 1014.36-11.5ZM1016.06-11.4L1016.06-11.4Q1016.06-12.94 1016.67-14.29 1017.29-15.65 1018.4-16.64 1019.51-17.63 1021.06-18.2 1022.61-18.77 1024.49-18.77L1024.49-18.77Q1025.68-18.77 1026.81-18.52 1027.93-18.26 1028.88-17.77 1029.83-17.29 1030.57-16.59 1031.3-15.89 1031.74-15.01L1031.74-15.01Q1030.13-16.48 1028.38-17.16 1026.64-17.85 1024.44-17.85L1024.44-17.85Q1022.85-17.85 1021.51-17.33 1020.17-16.82 1019.17-15.94 1018.16-15.06 1017.6-13.89 1017.04-12.72 1017.04-11.4L1017.04-11.4Q1017.04-10.3 1017.31-9.35 1017.58-8.4 1018.23-7.58 1018.87-6.76 1019.95-6.1 1021.02-5.44 1022.63-4.93L1022.63-4.93Q1021.17-5.03 1019.96-5.55 1018.75-6.08 1017.88-6.93 1017.02-7.79 1016.54-8.94 1016.06-10.08 1016.06-11.4ZM1051.49-5.47L1051.49-5.47Q1051-6.71 1050.77-8.18 1050.54-9.64 1050.54-11.4L1050.54-11.4 1050.54-19.41 1046.39-19.41 1046.39-23.56 1055.79-23.56 1055.79-13.48Q1055.79-11.5 1055.97-9.95 1056.15-8.4 1056.49-7.52L1056.49-7.52Q1056.93-6.4 1057.64-5.62 1058.35-4.83 1059.24-4.35 1060.13-3.86 1061.17-3.64 1062.21-3.42 1063.33-3.42L1063.33-3.42Q1064.53-3.42 1065.81-3.86 1067.09-4.3 1068.29-5.08 1069.48-5.86 1070.52-6.93 1071.56-8.01 1072.27-9.25L1072.27-9.25 1072.27-19.41 1066.89-19.41 1066.89-23.56 1077.51-23.56 1077.51-3.66 1081.67-3.66 1081.67 0 1072.27 0 1072.27-3.71Q1071.48-2.76 1070.37-1.95 1069.26-1.15 1067.91-0.55 1066.55 0.05 1064.99 0.39 1063.43 0.73 1061.74 0.73L1061.74 0.73Q1058.11 0.73 1055.43-0.79 1052.76-2.32 1051.49-5.47ZM1079.22-5.13L1079.22-22.31 1080.2-22.31 1080.2-5.13 1079.22-5.13ZM1057.54-12.01L1057.54-22.31 1058.52-22.31 1058.52-12.28Q1058.52-10.38 1058.89-9.11 1059.25-7.84 1059.86-7.03 1060.47-6.23 1061.25-5.79 1062.04-5.35 1062.87-5.1L1062.87-5.1Q1060.3-5.13 1058.92-6.8 1057.54-8.47 1057.54-12.01L1057.54-12.01ZM1068.36-16.77L1068.36-17.7 1071.24-17.7 1071.24-16.77 1068.36-16.77ZM1047.85-16.77L1047.85-17.7 1049.51-17.7 1049.51-16.77 1047.85-16.77ZM1073.73 1.71L1083.42 1.71 1083.42-2.29 1084.4-2.29 1084.4 2.64 1073.73 2.64 1073.73 1.71ZM1051.76-1.64L1051.76-1.64Q1053.66 0.42 1056.05 1.43 1058.45 2.44 1061.77 2.44L1061.77 2.44Q1064.72 2.44 1067.05 1.67 1069.38 0.9 1071.29-0.42L1071.29-0.42 1071.29 0.71Q1069.14 2.1 1066.82 2.73 1064.5 3.37 1061.79 3.37L1061.79 3.37Q1058.11 3.37 1055.52 2.09 1052.93 0.81 1051.76-1.64ZM1090.67 0L1090.67-3.66 1096.04-3.66 1096.04-19.41 1090.67-19.41 1090.67-23.56 1101.29-23.56 1101.29-19.87Q1102.05-20.8 1103.11-21.61 1104.17-22.41 1105.49-23.01 1106.81-23.61 1108.35-23.95 1109.89-24.29 1111.57-24.29L1111.57-24.29Q1114.11-24.29 1116.19-23.57 1118.26-22.85 1119.73-21.35 1121.19-19.85 1121.98-17.57 1122.78-15.28 1122.78-12.16L1122.78-12.16 1122.78-3.66 1128.15-3.66 1128.15 0 1113.38 0 1113.38-3.66 1117.53-3.66 1117.53-10.08Q1117.53-12.06 1117.35-13.61 1117.16-15.16 1116.82-16.04L1116.82-16.04Q1116.38-17.16 1115.71-17.94 1115.04-18.73 1114.2-19.21 1113.35-19.7 1112.35-19.92 1111.35-20.14 1110.23-20.14L1110.23-20.14Q1109.03-20.14 1107.75-19.7 1106.47-19.26 1105.26-18.47 1104.05-17.68 1103.02-16.6 1101.98-15.53 1101.29-14.28L1101.29-14.28 1101.29-3.66 1105.44-3.66 1105.44 0 1090.67 0ZM1124.54-5.13L1124.54-11.99Q1124.54-14.14 1124.21-15.98 1123.88-17.82 1123.22-19.3 1122.56-20.78 1121.59-21.85 1120.63-22.92 1119.36-23.56L1119.36-23.56Q1121.02-23.14 1122.19-22.16 1123.36-21.17 1124.1-19.65 1124.83-18.14 1125.17-16.16 1125.51-14.18 1125.51-11.82L1125.51-11.82 1125.51-5.13 1124.54-5.13ZM1103.05-5.13L1103.05-13.67Q1103.66-14.75 1104.5-15.63 1105.35-16.5 1106.34-17.13 1107.32-17.75 1108.41-18.09 1109.5-18.43 1110.57-18.43L1110.57-18.43Q1112.26-18.43 1113.31-17.8 1114.36-17.16 1114.84-16.19L1114.84-16.19Q1114.09-16.75 1113.07-17.14 1112.06-17.53 1110.52-17.53L1110.52-17.53Q1109.57-17.53 1108.59-17.18 1107.62-16.82 1106.74-16.24 1105.86-15.65 1105.15-14.89 1104.44-14.14 1104.03-13.35L1104.03-13.35 1104.03-5.13 1103.05-5.13ZM1092.14-16.77L1092.14-17.7 1095.02-17.7 1095.02-16.77 1092.14-16.77ZM1114.84 1.71L1129.91 1.71 1129.91-2.29 1130.88-2.29 1130.88 2.64 1114.84 2.64 1114.84 1.71ZM1092.14 1.71L1107.2 1.71 1107.2-2.29 1108.18-2.29 1108.18 2.64 1092.14 2.64 1092.14 1.71ZM1139.11-8.74L1139.11-19.41 1133.74-19.41 1133.74-23.56 1139.11-23.56 1139.11-28.49 1144.36-30.69 1144.36-23.56 1156.49-23.56 1156.49-19.41 1144.36-19.41 1144.36-7.76Q1144.36-5.93 1145.51-5.04 1146.66-4.15 1148.63-4.15L1148.63-4.15 1155.52-4.15 1155.52 0 1148.63 0Q1146.66 0 1144.92-0.43 1143.19-0.85 1141.89-1.87 1140.6-2.88 1139.86-4.55 1139.11-6.23 1139.11-8.74L1139.11-8.74ZM1146.12-25.02L1146.12-29.35 1147.09-29.79 1147.09-25.02 1146.12-25.02ZM1146.07-6.76L1146.07-17.97 1158.25-17.97 1158.25-22.46 1159.23-22.46 1159.23-17.04 1147.05-17.04 1147.05-5.79Q1146.22-6.01 1146.07-6.76L1146.07-6.76ZM1135.21-16.77L1135.21-17.7 1138.13-17.7 1138.13-16.77 1135.21-16.77ZM1138.96-2.1L1138.96-2.1Q1139.75-1 1140.71-0.27 1141.67 0.46 1142.87 0.9 1144.07 1.34 1145.48 1.53 1146.9 1.71 1148.58 1.71L1148.58 1.71 1157.28 1.71 1157.28-3.05 1158.25-3.05 1158.25 2.64 1148.46 2.64Q1146.58 2.64 1145.04 2.39 1143.51 2.15 1142.32 1.6 1141.14 1.05 1140.3 0.13 1139.45-0.78 1138.96-2.1ZM1164.45-11.69L1164.45-11.69Q1164.45-13.96 1165.41-16.21 1166.36-18.46 1168.23-20.25 1170.09-22.05 1172.85-23.17 1175.61-24.29 1179.2-24.29L1179.2-24.29Q1180.35-24.29 1181.65-24.12 1182.96-23.95 1184.27-23.56 1185.57-23.17 1186.82-22.52 1188.06-21.88 1189.09-20.95L1189.09-20.95 1189.09-23.56 1199.58-23.56 1199.58-19.41 1194.21-19.41 1194.21-3.66 1199.58-3.66 1199.58 0 1189.09 0 1189.09-3.17Q1188.13-2.22 1186.93-1.49 1185.72-0.76 1184.36-0.27 1183.01 0.22 1181.56 0.48 1180.1 0.73 1178.66 0.73L1178.66 0.73Q1175.15 0.73 1172.49-0.27 1169.82-1.27 1168.04-2.97 1166.26-4.66 1165.36-6.92 1164.45-9.18 1164.45-11.69ZM1195.97-5.13L1195.97-17.7 1201.34-17.7 1201.34-21.7 1202.32-21.7 1202.32-16.77 1196.95-16.77 1196.95-5.13 1195.97-5.13ZM1169.75-11.89L1169.75-11.89Q1169.75-9.86 1170.47-8.23 1171.19-6.59 1172.44-5.44 1173.68-4.3 1175.39-3.66 1177.1-3.03 1179.08-3.03L1179.08-3.03Q1180.22-3.03 1181.41-3.26 1182.59-3.49 1183.7-3.97 1184.81-4.44 1185.8-5.16 1186.79-5.88 1187.51-6.87 1188.23-7.86 1188.66-9.13 1189.09-10.4 1189.09-11.96L1189.09-11.96Q1189.09-13.7 1188.28-15.25 1187.48-16.8 1186.12-17.97 1184.77-19.14 1182.96-19.82 1181.15-20.51 1179.15-20.51L1179.15-20.51Q1177.15-20.51 1175.43-19.9 1173.71-19.29 1172.45-18.16 1171.19-17.04 1170.47-15.44 1169.75-13.84 1169.75-11.89ZM1171.44-11.77L1171.44-11.77Q1171.44-13.31 1172.01-14.59 1172.58-15.87 1173.61-16.81 1174.63-17.75 1176.05-18.27 1177.47-18.8 1179.15-18.8L1179.15-18.8Q1180.42-18.8 1181.45-18.52 1182.47-18.24 1183.23-17.83 1183.98-17.43 1184.47-17 1184.96-16.58 1185.16-16.26L1185.16-16.26Q1183.84-16.99 1182.45-17.43 1181.05-17.87 1179.15-17.87L1179.15-17.87Q1177.61-17.87 1176.38-17.37 1175.15-16.87 1174.27-16.02 1173.39-15.16 1172.91-14.04 1172.44-12.92 1172.44-11.67L1172.44-11.67Q1172.44-10.5 1172.71-9.47 1172.97-8.45 1173.57-7.58 1174.17-6.71 1175.13-5.99 1176.1-5.27 1177.47-4.74L1177.47-4.74Q1175.93-5 1174.79-5.65 1173.66-6.3 1172.91-7.23 1172.17-8.15 1171.8-9.31 1171.44-10.47 1171.44-11.77ZM1190.55 1.71L1201.34 1.71 1201.34-2.29 1202.32-2.29 1202.32 2.64 1190.55 2.64 1190.55 1.71ZM1167.6-1.05L1167.6-1.05Q1168.6-0.24 1169.87 0.4 1171.14 1.05 1172.58 1.5 1174.02 1.95 1175.57 2.2 1177.12 2.44 1178.69 2.44L1178.69 2.44Q1181.4 2.44 1183.75 1.77 1186.11 1.1 1187.94-0.1L1187.94-0.1 1187.94 1.03Q1186.11 2.12 1183.7 2.75 1181.3 3.37 1178.71 3.37L1178.71 3.37Q1176.93 3.37 1175.22 3.09 1173.51 2.81 1172.05 2.25 1170.58 1.68 1169.43 0.85 1168.29 0.02 1167.6-1.05ZM1213.55-29.64L1213.55-34.52 1219.53-34.52 1219.53-29.64 1213.55-29.64ZM1215.01-27L1215.01-27.93 1221.29-27.93 1221.29-33.15 1222.27-33.15 1222.27-27 1215.01-27ZM1208.42 0L1208.42-3.66 1215.01-3.66 1214.28-19.41 1208.42-19.41 1208.42-23.56 1219.53-23.56 1219.53-3.66 1225.15-3.66 1225.15 0 1208.42 0ZM1221.24-5.13L1221.24-22.31 1222.22-22.31 1222.22-5.13 1221.24-5.13ZM1209.89-16.77L1209.89-17.7 1213.26-17.7 1213.26-16.77 1209.89-16.77ZM1209.89 1.71L1226.9 1.71 1226.9-2.29 1227.88-2.29 1227.88 2.64 1209.89 2.64 1209.89 1.71ZM1232.32 0L1232.32-3.66 1237.7-3.66 1237.7-19.41 1232.32-19.41 1232.32-23.56 1242.94-23.56 1242.94-19.87Q1243.7-20.8 1244.76-21.61 1245.83-22.41 1247.14-23.01 1248.46-23.61 1250-23.95 1251.54-24.29 1253.22-24.29L1253.22-24.29Q1255.76-24.29 1257.84-23.57 1259.91-22.85 1261.38-21.35 1262.84-19.85 1263.64-17.57 1264.43-15.28 1264.43-12.16L1264.43-12.16 1264.43-3.66 1269.8-3.66 1269.8 0 1255.03 0 1255.03-3.66 1259.18-3.66 1259.18-10.08Q1259.18-12.06 1259-13.61 1258.81-15.16 1258.47-16.04L1258.47-16.04Q1258.03-17.16 1257.36-17.94 1256.69-18.73 1255.85-19.21 1255-19.7 1254-19.92 1253-20.14 1251.88-20.14L1251.88-20.14Q1250.68-20.14 1249.4-19.7 1248.12-19.26 1246.91-18.47 1245.7-17.68 1244.67-16.6 1243.63-15.53 1242.94-14.28L1242.94-14.28 1242.94-3.66 1247.09-3.66 1247.09 0 1232.32 0ZM1266.19-5.13L1266.19-11.99Q1266.19-14.14 1265.86-15.98 1265.53-17.82 1264.87-19.3 1264.21-20.78 1263.24-21.85 1262.28-22.92 1261.01-23.56L1261.01-23.56Q1262.67-23.14 1263.84-22.16 1265.01-21.17 1265.75-19.65 1266.48-18.14 1266.82-16.16 1267.16-14.18 1267.16-11.82L1267.16-11.82 1267.16-5.13 1266.19-5.13ZM1244.7-5.13L1244.7-13.67Q1245.31-14.75 1246.15-15.63 1247-16.5 1247.99-17.13 1248.97-17.75 1250.06-18.09 1251.15-18.43 1252.22-18.43L1252.22-18.43Q1253.91-18.43 1254.96-17.8 1256.01-17.16 1256.49-16.19L1256.49-16.19Q1255.74-16.75 1254.72-17.14 1253.71-17.53 1252.17-17.53L1252.17-17.53Q1251.22-17.53 1250.24-17.18 1249.27-16.82 1248.39-16.24 1247.51-15.65 1246.8-14.89 1246.09-14.14 1245.68-13.35L1245.68-13.35 1245.68-5.13 1244.7-5.13ZM1233.79-16.77L1233.79-17.7 1236.67-17.7 1236.67-16.77 1233.79-16.77ZM1256.49 1.71L1271.56 1.71 1271.56-2.29 1272.53-2.29 1272.53 2.64 1256.49 2.64 1256.49 1.71ZM1233.79 1.71L1248.85 1.71 1248.85-2.29 1249.83-2.29 1249.83 2.64 1233.79 2.64 1233.79 1.71ZM1277.32 0L1277.32-6.71 1282.35-6.71Q1283.01-5.71 1284.23-4.96 1285.45-4.2 1287.02-3.71 1288.6-3.22 1290.48-2.98 1292.36-2.73 1294.34-2.73L1294.34-2.73Q1295.97-2.73 1297.12-2.98 1298.27-3.22 1298.97-3.66 1299.68-4.1 1300-4.69 1300.32-5.27 1300.32-5.98L1300.32-5.98Q1300.32-7.47 1297.94-8.53 1295.56-9.59 1290.41-10.16L1290.41-10.16Q1286.99-10.52 1284.69-11.17 1282.4-11.82 1280.99-12.74 1279.59-13.67 1278.99-14.87 1278.39-16.06 1278.39-17.5L1278.39-17.5Q1278.39-18.75 1279.17-19.97 1279.96-21.19 1281.56-22.16 1283.15-23.12 1285.56-23.71 1287.96-24.29 1291.21-24.29L1291.21-24.29Q1292.26-24.29 1293.36-24.15 1294.46-24 1295.51-23.72 1296.56-23.44 1297.51-23.05 1298.46-22.66 1299.22-22.17L1299.22-22.17 1299.22-23.54 1304.47-23.54 1304.47-16.94 1299.22-16.94Q1298.95-17.7 1298.1-18.38 1297.24-19.07 1296.07-19.58 1294.9-20.09 1293.58-20.4 1292.26-20.7 1291.09-20.7L1291.09-20.7Q1289.55-20.7 1288.18-20.48 1286.82-20.26 1285.82-19.86 1284.81-19.46 1284.23-18.9 1283.64-18.33 1283.64-17.65L1283.64-17.65Q1283.64-17.02 1284.09-16.5 1284.55-15.99 1285.61-15.55 1286.67-15.11 1288.44-14.73 1290.21-14.36 1292.85-14.04L1292.85-14.04Q1296.36-13.6 1298.78-12.92 1301.2-12.23 1302.71-11.24 1304.22-10.25 1304.9-8.94 1305.57-7.62 1305.57-5.91L1305.57-5.91Q1305.57-4.66 1304.81-3.48 1304.05-2.29 1302.6-1.35 1301.15-0.42 1299.04 0.16 1296.92 0.73 1294.19 0.73L1294.19 0.73Q1292.43 0.73 1290.89 0.6 1289.36 0.46 1287.94 0.15 1286.52-0.17 1285.21-0.66 1283.89-1.15 1282.57-1.86L1282.57-1.86 1282.57 0 1277.32 0ZM1300.42-14.31L1300.42-15.23 1306.23-15.23 1306.23-22.51 1307.2-22.51 1307.2-14.31 1300.42-14.31ZM1285.42-17.65L1285.42-17.65Q1285.5-17.97 1286.01-18.24 1286.52-18.51 1287.32-18.71 1288.11-18.92 1289.07-19.04 1290.04-19.17 1291.02-19.17L1291.02-19.17Q1291.85-19.17 1292.74-19.04 1293.63-18.92 1294.42-18.7 1295.21-18.48 1295.86-18.15 1296.51-17.82 1296.88-17.41L1296.88-17.41Q1296.31-17.65 1295.53-17.81 1294.75-17.97 1293.93-18.07 1293.12-18.16 1292.33-18.21 1291.55-18.26 1291.02-18.26L1291.02-18.26Q1289.04-18.26 1287.59-18.07 1286.13-17.87 1285.42-17.65ZM1278.74-12.82L1278.74-12.82Q1279.42-11.94 1280.37-11.25 1281.32-10.57 1282.67-10.03 1284.01-9.5 1285.79-9.12 1287.57-8.74 1289.89-8.47L1289.89-8.47Q1292.02-8.23 1293.58-7.95 1295.14-7.67 1296.19-7.32 1297.24-6.98 1297.83-6.56 1298.41-6.13 1298.58-5.59L1298.58-5.59Q1298.07-5.93 1297.41-6.19 1296.75-6.45 1295.73-6.67 1294.7-6.88 1293.2-7.1 1291.7-7.32 1289.48-7.59L1289.48-7.59Q1284.89-8.13 1282.23-9.34 1279.57-10.55 1278.74-12.82ZM1278.52 1.71L1284.33 1.71 1284.33 0.68Q1285.01 1 1286.06 1.31 1287.11 1.61 1288.42 1.87 1289.72 2.12 1291.19 2.28 1292.65 2.44 1294.17 2.44L1294.17 2.44Q1297.19 2.44 1299.63 1.77 1302.08 1.1 1303.78-0.04 1305.49-1.17 1306.41-2.67 1307.32-4.17 1307.32-5.83L1307.32-5.83Q1307.32-6.49 1307.25-7.06 1307.18-7.62 1306.99-8.13 1306.81-8.64 1306.51-9.16 1306.2-9.67 1305.74-10.23L1305.74-10.23Q1308.3-8.72 1308.3-5.83L1308.3-5.83Q1308.3-3.88 1307.3-2.2 1306.3-0.51 1304.46 0.72 1302.61 1.95 1300 2.66 1297.39 3.37 1294.14 3.37L1294.14 3.37Q1292.94 3.37 1291.72 3.26 1290.5 3.15 1289.36 2.95 1288.21 2.76 1287.18 2.49 1286.16 2.22 1285.35 1.88L1285.35 1.88 1285.35 2.69 1278.52 2.69 1278.52 1.71Z" opacity="1" transform="matrix(1,0,0,1,0,0)" fill="#c56e33" class="undefined-text-1" data-fill-palette-color="secondary" id="text-1"></path></svg></g></svg></g></svg></g></svg></g></svg></g></svg><rect width="395.52" height="130.06988267374257" fill="none" stroke="none" visibility="hidden"></rect></g></svg></g></svg>